<svg version="1.1" id="Layer_1" xmlns="http://www.w3.org/2000/svg" xmlns:xlink="http://www.w3.org/1999/xlink" x="0px" y="0px"
	 width="100%" viewBox="0 0 1568 1757" enable-background="new 0 0 1568 1757" xml:space="preserve">
<path fill="#000000" opacity="1.000000" stroke="none" 
	d="
M839.000000,1758.000000 
	C559.333435,1758.000000 280.166840,1758.000000 1.000187,1758.000000 
	C1.000125,1172.333618 1.000125,586.667175 1.000062,1.000580 
	C523.666260,1.000387 1046.332520,1.000387 1568.999023,1.000193 
	C1568.999390,586.666077 1568.999390,1172.332153 1568.999756,1757.999146 
	C1325.833374,1758.000000 1082.666626,1758.000000 839.000000,1758.000000 
M720.021301,1208.005615 
	C720.021301,1208.005615 720.089417,1208.002808 719.639343,1207.244751 
	C708.083557,1207.081909 696.527710,1206.919189 685.056274,1206.398804 
	C685.056274,1206.398804 684.955872,1206.045166 684.989563,1205.096191 
	C684.993042,1193.308105 685.030090,1181.519775 684.958740,1169.732178 
	C684.949524,1168.201538 684.380798,1166.674194 683.128845,1165.054199 
	C676.651184,1165.036255 670.173523,1165.012695 663.695862,1165.001587 
	C655.132202,1164.987061 652.659790,1167.691284 650.840149,1176.311035 
	C648.651794,1186.677490 645.591492,1196.859985 641.986023,1207.018188 
	C623.981323,1206.931030 605.976624,1206.843750 588.110718,1205.865234 
	C588.506104,1200.441895 588.285461,1194.884155 589.434021,1189.625244 
	C591.406494,1180.593994 599.611389,1176.092896 612.585388,1176.002930 
	C619.282166,1175.956543 622.779968,1172.813110 623.028809,1166.202881 
	C623.216370,1161.220581 622.892700,1156.219849 623.041321,1151.234619 
	C623.137024,1148.026489 621.953918,1146.698486 618.731384,1145.834351 
	C607.242004,1142.753174 595.675354,1143.373779 584.555359,1146.298828 
	C571.881470,1149.632568 561.248962,1156.661865 553.803772,1168.098022 
	C547.176086,1178.278442 545.638123,1189.376587 545.964478,1201.100830 
	C546.143616,1207.536011 545.594604,1207.888306 539.278687,1208.014648 
	C534.813660,1208.104004 528.495972,1206.629761 526.377869,1208.942383 
	C523.963989,1211.577759 525.122192,1217.641357 525.039246,1222.220703 
	C524.893250,1230.279419 526.869324,1232.750488 534.852356,1235.116455 
	C538.269409,1236.129150 541.698547,1237.100952 545.018127,1239.014038 
	C545.012085,1275.462646 544.994995,1311.911133 545.038757,1348.359741 
	C545.040588,1349.864990 545.611633,1351.369629 546.862244,1352.953247 
	C558.999023,1352.968384 571.141235,1352.780029 583.269836,1353.102051 
	C587.908997,1353.225342 589.112854,1351.743286 589.093506,1347.214600 
	C588.937744,1310.804565 589.026489,1274.393433 589.970032,1237.997437 
	C606.954773,1237.965454 623.939575,1237.933472 640.973145,1238.849854 
	C640.982422,1263.302490 640.941895,1287.755249 641.049438,1312.207397 
	C641.067505,1316.317017 641.575928,1320.443481 642.115417,1324.528198 
	C644.035645,1339.065674 658.066345,1353.035645 672.028870,1354.152588 
	C677.787842,1354.613281 683.573486,1354.927612 689.348816,1354.958008 
	C700.863953,1355.018433 711.275574,1351.215088 721.083557,1345.430664 
	C724.264404,1343.554810 724.348450,1341.526855 722.322937,1338.612183 
	C719.236389,1334.170288 716.485291,1329.495605 713.579895,1324.927490 
	C709.183594,1318.015137 706.821289,1317.570923 699.060547,1320.143433 
	C691.892151,1322.519531 684.838806,1320.623657 684.978210,1311.030884 
	C684.970764,1287.006348 684.963318,1262.981934 685.057739,1238.600586 
	C685.057739,1238.600586 684.976990,1238.238281 685.898926,1238.035522 
	C695.798218,1238.023682 705.697876,1238.053589 715.596313,1237.955444 
	C717.097046,1237.940674 718.591858,1237.331543 720.021301,1236.994385 
	C720.021301,1236.994385 720.025330,1237.062500 720.725220,1236.551270 
	C720.816833,1229.509277 721.000061,1222.466797 720.950806,1215.425781 
	C720.933411,1212.927612 720.350281,1210.433472 720.021301,1208.005615 
M277.005615,1423.978882 
	C277.005615,1423.978882 277.003326,1423.910645 276.244965,1424.360474 
	C276.203278,1466.208252 276.161560,1508.056030 275.993286,1550.797241 
	C275.647430,1553.902100 275.678497,1557.106201 274.891357,1560.094849 
	C271.230164,1573.995972 263.741913,1584.753662 249.008209,1588.303223 
	C243.475388,1589.636230 237.475891,1590.234131 231.848877,1589.644165 
	C225.957336,1589.026245 219.568085,1587.716675 214.607239,1584.710938 
	C201.258667,1576.623047 196.167389,1563.426025 196.072937,1548.415527 
	C195.811859,1506.921387 195.902863,1465.424927 195.392868,1423.233154 
	C179.654617,1423.233154 163.916351,1423.233154 148.290924,1423.233154 
	C148.151794,1423.894409 148.089569,1424.052490 148.089310,1424.210693 
	C148.019318,1467.029419 147.947388,1509.848145 147.933685,1552.666870 
	C147.933426,1553.499390 148.618896,1554.332275 148.994415,1556.018188 
	C149.315948,1558.454956 149.572998,1560.902222 149.968826,1563.326904 
	C154.575790,1591.546997 170.359146,1611.230469 196.152039,1622.927734 
	C215.534576,1631.717896 236.139740,1631.878906 256.529205,1628.713379 
	C278.315277,1625.331055 296.587250,1614.813721 309.311981,1596.238770 
	C318.756317,1582.452515 323.994843,1567.137695 323.988556,1550.269531 
	C323.972931,1508.156128 323.902863,1466.042847 323.392944,1423.233032 
	C308.610992,1423.162109 293.829071,1423.078003 279.047028,1423.061035 
	C278.344208,1423.060303 277.640686,1423.656372 277.005615,1423.978882 
M1159.551270,1482.274780 
	C1146.043213,1482.190308 1132.535278,1482.091675 1119.027100,1482.062622 
	C1118.331299,1482.061157 1117.634033,1482.656982 1117.005737,1482.979126 
	C1117.005737,1482.979126 1117.003052,1482.910767 1116.244873,1483.360596 
	C1116.163818,1484.182617 1116.011719,1485.004761 1116.011475,1485.826782 
	C1115.999634,1532.006714 1115.994019,1578.186768 1116.038696,1624.366699 
	C1116.039795,1625.536377 1116.611938,1626.705566 1117.862305,1627.954224 
	C1131.935547,1627.927734 1146.008789,1627.901245 1160.844482,1627.487915 
	C1160.895142,1580.140015 1160.951172,1532.791992 1160.954834,1485.444092 
	C1160.954956,1484.599609 1160.330200,1483.755249 1159.994263,1482.979126 
	C1159.994263,1482.979126 1160.062500,1482.974609 1159.551270,1482.274780 
M554.551331,1482.274780 
	C541.043335,1482.190308 527.535339,1482.091553 514.027222,1482.062500 
	C513.331299,1482.061035 512.634094,1482.656860 512.005615,1482.979004 
	C512.005615,1482.979004 512.003296,1482.910767 511.244934,1483.360596 
	C511.163818,1484.182617 511.011871,1485.004639 511.011658,1485.826660 
	C510.999786,1532.006714 510.993896,1578.186646 511.038574,1624.366699 
	C511.039703,1625.536377 511.611938,1626.705566 512.862488,1627.954102 
	C526.935608,1627.927734 541.008789,1627.901367 555.844604,1627.487915 
	C555.895264,1580.139893 555.950989,1532.791870 555.954712,1485.443848 
	C555.954773,1484.599487 555.329956,1483.755249 554.994385,1482.979126 
	C554.994385,1482.979126 555.062500,1482.974609 554.551331,1482.274780 
M516.564575,600.002625 
	C516.744812,599.947632 516.924988,599.892578 517.721130,600.204773 
	C581.377075,632.734802 645.033020,665.264832 708.999573,697.953613 
	C708.999573,652.033264 709.030701,606.707458 708.873474,561.382263 
	C708.867859,559.752197 707.397095,557.424255 705.944641,556.616638 
	C696.865173,551.568237 687.630066,546.795044 678.383484,542.053467 
	C661.488586,533.389893 644.549438,524.812805 627.629700,516.197754 
	C609.985413,507.213715 592.340210,498.231262 574.699097,489.240845 
	C559.082336,481.282104 543.479431,473.295959 527.854248,465.353760 
	C510.495056,456.530212 493.114014,447.749664 475.748810,438.937836 
	C453.237305,427.514618 430.732086,416.079041 407.466309,404.263947 
	C413.252106,401.235352 418.443085,398.634613 423.525940,395.837463 
	C445.801117,383.579254 468.023376,371.224823 490.308716,358.985199 
	C502.658478,352.202423 515.134216,345.649078 527.483276,338.865143 
	C549.909912,326.545074 572.261169,314.087799 594.688721,301.769470 
	C609.875244,293.428314 625.189209,285.318695 640.355103,276.940643 
	C661.764709,265.113342 683.017944,253.000443 704.524780,241.354477 
	C707.986023,239.480209 709.098511,237.691513 709.086670,233.892319 
	C708.950500,190.232025 709.002136,146.571167 708.991150,102.910454 
	C708.990723,101.335754 708.859497,99.761086 708.771301,97.783302 
	C702.038696,101.388573 695.802856,104.732788 689.562561,108.068573 
	C668.690125,119.225967 647.831848,130.410095 626.938232,141.527573 
	C605.762878,152.794937 584.540955,163.974884 563.359497,175.230713 
	C542.606995,186.258621 521.886047,197.345840 501.139557,208.384995 
	C479.818665,219.729782 458.482300,231.045425 437.155151,242.378479 
	C416.547699,253.329102 395.940063,264.279327 375.338654,275.241333 
	C353.872681,286.663391 332.432098,298.133392 310.946838,309.519012 
	C291.893738,319.615692 272.769043,329.577606 253.735794,339.711456 
	C249.638687,341.892914 245.798111,344.556183 241.117752,347.463104 
	C241.078751,383.803101 241.033646,420.143066 241.038162,456.483063 
	C241.038269,457.337646 241.595337,458.192169 242.207443,459.687347 
	C244.321350,460.855072 246.407715,462.076233 248.553528,463.182037 
	C264.423615,471.360229 280.294617,479.536835 296.186798,487.672028 
	C313.376770,496.471558 330.581207,505.242981 347.795898,513.994019 
	C362.239166,521.336243 376.706299,528.631653 391.020172,536.887268 
	C391.013489,641.822693 391.002197,746.758179 391.049957,851.693604 
	C391.050598,853.075562 391.800537,854.457092 392.777008,856.249634 
	C410.630249,865.085510 428.487762,873.912781 446.335907,882.758911 
	C495.799011,907.274231 545.269104,931.775452 594.715759,956.323792 
	C643.875732,980.729797 693.015747,1005.176086 742.153870,1029.625977 
	C758.169373,1037.594849 774.105164,1045.726685 790.208130,1053.513550 
	C792.209167,1054.481201 795.390015,1054.611328 797.387634,1053.713501 
	C807.455261,1049.188232 817.346191,1044.262695 827.236755,1039.352173 
	C876.394287,1014.946594 925.539185,990.515442 974.674438,966.065002 
	C1000.536377,953.195740 1026.369873,940.269165 1052.215332,927.366577 
	C1073.455322,916.763062 1094.658936,906.085938 1115.942017,895.569824 
	C1142.956787,882.221619 1170.035400,869.002991 1197.000000,855.770935 
	C1197.000000,853.447449 1197.000000,851.618652 1197.000000,849.789856 
	C1197.000000,748.792603 1197.129028,647.794861 1196.759888,546.798950 
	C1196.729736,538.543884 1198.753296,533.541870 1206.414551,530.930664 
	C1206.715454,530.828186 1206.934326,530.505981 1207.227417,530.356934 
	C1223.864746,521.894836 1240.509766,513.447815 1257.145752,504.983154 
	C1283.744507,491.449341 1310.337646,477.904327 1337.664307,463.800690 
	C1337.774780,463.151184 1337.981689,462.501678 1337.982056,461.852112 
	C1337.998779,422.900116 1338.005249,383.948090 1337.960693,344.996124 
	C1337.959473,343.971802 1337.382935,342.948151 1336.790894,341.273315 
	C1331.567139,338.362488 1326.386719,335.370239 1321.111816,332.555176 
	C1300.523804,321.567902 1279.901367,310.644592 1259.299805,299.682526 
	C1237.834961,288.261200 1216.388916,276.804962 1194.916748,265.397644 
	C1179.461792,257.187042 1163.958130,249.067932 1148.510986,240.842728 
	C1127.622559,229.720154 1106.781616,218.508438 1085.893433,207.385590 
	C1070.445923,199.159882 1054.938354,191.046906 1039.488281,182.826141 
	C1017.877441,171.327393 996.321289,159.725616 974.692566,148.260727 
	C955.786560,138.239029 936.792969,128.382584 917.879639,118.374580 
	C911.581055,115.041641 905.464539,111.364632 899.167664,108.028183 
	C892.652954,104.576294 886.020264,101.346977 879.400146,98.000557 
	C879.228271,98.508751 879.132324,98.660233 879.132141,98.811813 
	C879.084167,144.634247 879.019775,190.456741 879.114868,236.278915 
	C879.117676,237.627121 880.498718,239.479935 881.755188,240.231369 
	C887.585205,243.718002 893.589111,246.915207 899.547241,250.186081 
	C920.131409,261.486359 940.720459,272.777802 961.311401,284.065674 
	C985.737427,297.455872 1010.176819,310.821686 1034.592651,324.230438 
	C1054.467041,335.145142 1074.289429,346.154480 1094.181763,357.036194 
	C1117.060181,369.551331 1140.001465,381.951416 1162.889526,394.448883 
	C1168.611206,397.573059 1174.233887,400.878815 1180.011108,404.163147 
	C1174.520874,407.227753 1169.645752,410.129974 1164.612183,412.725189 
	C1148.312500,421.129242 1131.954346,429.419800 1115.619507,437.755646 
	C1098.560547,446.460999 1081.502686,455.169067 1064.443726,463.874451 
	C1048.108887,472.210297 1031.773071,480.544159 1015.437683,488.878967 
	C999.101868,497.213989 982.783691,505.583954 966.426147,513.876221 
	C938.762817,527.899902 911.116272,541.958557 883.342041,555.759766 
	C880.001770,557.419556 878.912598,559.156860 878.922546,562.772888 
	C879.042297,606.432556 879.000122,650.092712 879.000122,693.752686 
	C879.000122,694.990601 879.000122,696.228516 879.000122,698.291748 
	C887.530334,693.735535 895.311829,689.434631 903.221497,685.384155 
	C920.554871,676.508057 937.937012,667.726868 955.329529,658.967041 
	C970.703003,651.224182 986.159973,643.646362 1001.504028,635.846008 
	C1024.930054,623.937073 1048.290649,611.899231 1071.965454,600.837891 
	C1071.976929,644.147034 1071.975586,687.456238 1072.006714,730.765381 
	C1072.018066,746.586365 1072.106812,762.407410 1071.706055,778.773376 
	C1050.118530,789.344727 1028.488647,799.830688 1006.952087,810.504822 
	C958.511047,834.513489 910.112366,858.607605 861.704590,882.683472 
	C840.499084,893.230103 819.284729,903.759766 798.152710,914.452026 
	C795.227173,915.932251 792.933960,916.036499 789.965515,914.553650 
	C758.912109,899.040955 727.760864,883.724304 696.690674,868.245117 
	C654.090942,847.021912 611.544556,825.691650 568.961609,804.434692 
	C551.271667,795.604126 533.546387,786.844360 515.979797,777.112854 
	C516.009338,718.065369 516.038879,659.017944 515.980347,599.996033 
	C515.980347,599.996033 516.005249,600.084351 516.564575,600.002625 
M884.054565,1483.871338 
	C884.037537,1530.290649 884.053101,1576.709961 883.939453,1623.129028 
	C883.930664,1626.706787 884.793152,1628.147949 888.654724,1628.073608 
	C901.460632,1627.827148 914.272888,1627.914795 927.844849,1627.486816 
	C927.854004,1598.029053 927.863098,1568.571411 928.048950,1538.400635 
	C929.184814,1536.425415 930.341431,1534.461914 931.452515,1532.472900 
	C934.961548,1526.191528 940.343933,1522.121826 947.337524,1521.247314 
	C952.354919,1520.620117 957.607666,1521.217651 962.679810,1521.862793 
	C968.337402,1522.582397 973.713074,1520.272705 974.105042,1515.750977 
	C974.961914,1505.864990 975.498840,1495.946045 975.870117,1486.029419 
	C975.919617,1484.706543 974.533081,1482.518799 973.328186,1482.089966 
	C964.556580,1478.968994 955.561035,1478.490112 946.836304,1482.042480 
	C937.049927,1486.027100 930.783508,1494.089478 924.723206,1503.098999 
	C923.710388,1498.191162 922.870117,1493.939209 921.947754,1489.705322 
	C921.148621,1486.036987 919.284668,1483.368530 914.752808,1482.197388 
	C906.718201,1482.131592 898.683105,1481.997803 890.649170,1482.045044 
	C888.479736,1482.057739 886.313416,1482.619385 884.054565,1483.871338 
M1143.752563,1207.197266 
	C1135.718018,1207.131470 1127.682983,1206.997803 1119.649048,1207.044922 
	C1117.479736,1207.057617 1115.313477,1207.619385 1113.054565,1208.871460 
	C1113.037476,1255.290771 1113.052979,1301.710083 1112.939331,1348.129150 
	C1112.930542,1351.707275 1113.793823,1353.148071 1117.654907,1353.073853 
	C1130.460815,1352.827515 1143.273193,1352.914917 1156.844849,1352.486816 
	C1156.853882,1323.028931 1156.862915,1293.571045 1157.048706,1263.400391 
	C1158.184692,1261.425293 1159.341553,1259.461914 1160.452759,1257.472900 
	C1163.961670,1251.191284 1169.344116,1247.121826 1176.337769,1246.247314 
	C1181.355103,1245.619995 1186.607788,1246.217773 1191.679932,1246.862793 
	C1197.337158,1247.582397 1202.713379,1245.272217 1203.105347,1240.750854 
	C1203.962036,1230.864868 1204.521362,1220.946045 1204.848511,1211.029053 
	C1204.893799,1209.660034 1203.208496,1207.426880 1201.848755,1206.949829 
	C1193.226440,1203.926270 1184.383667,1203.557129 1175.835938,1207.041992 
	C1166.051270,1211.031128 1159.783569,1219.089844 1153.722900,1228.098267 
	C1152.710327,1223.191650 1151.870239,1218.939453 1150.947754,1214.705200 
	C1150.148560,1211.037109 1148.285034,1208.367920 1143.752563,1207.197266 
M1243.989746,1480.095459 
	C1243.993164,1468.307495 1244.030273,1456.519409 1243.958740,1444.731934 
	C1243.949463,1443.201416 1243.380493,1441.674316 1242.128296,1440.054199 
	C1235.134033,1440.036255 1228.139648,1440.015625 1221.145386,1440.001099 
	C1214.734619,1439.987793 1212.418701,1441.864136 1210.925781,1448.154541 
	C1208.613770,1457.896240 1206.253906,1467.626587 1203.940186,1477.367798 
	C1203.152954,1480.682373 1201.783936,1482.716431 1197.759521,1483.131226 
	C1191.945068,1483.730469 1186.238525,1485.375732 1180.000366,1486.675781 
	C1180.000366,1492.528076 1180.306274,1498.347412 1179.918701,1504.120117 
	C1179.487793,1510.535400 1182.703857,1511.714600 1187.251831,1512.811035 
	C1189.148193,1513.268433 1191.229004,1512.987061 1193.226196,1512.994385 
	C1199.991455,1513.019287 1199.932007,1513.011841 1200.010986,1519.748169 
	C1200.312988,1545.518188 1200.418945,1571.293823 1201.075073,1597.055176 
	C1201.457397,1612.067627 1214.071411,1625.951416 1229.752197,1628.913574 
	C1235.703369,1630.037720 1241.932861,1629.920898 1248.037720,1629.950684 
	C1261.322388,1630.015625 1273.045654,1625.280884 1283.882568,1617.927368 
	C1279.869141,1611.433228 1275.958862,1605.203369 1272.148315,1598.912842 
	C1268.456299,1592.817993 1265.697266,1592.266968 1259.057373,1594.691406 
	C1250.114624,1597.956421 1244.827881,1595.857788 1243.945557,1584.943604 
	C1243.948975,1561.282104 1243.952515,1537.620483 1244.057373,1513.601196 
	C1244.057373,1513.601196 1243.976318,1513.238403 1244.898438,1513.035522 
	C1255.051758,1513.023682 1265.205566,1513.049194 1275.358154,1512.959351 
	C1276.866089,1512.946045 1278.369263,1512.388916 1279.952881,1511.138428 
	C1279.926758,1501.731323 1279.900513,1492.324341 1279.486816,1482.155029 
	C1267.648315,1482.022217 1255.809692,1481.889282 1244.055908,1481.398193 
	C1244.055908,1481.398193 1243.955933,1481.043945 1243.989746,1480.095459 
M1084.845215,1352.486084 
	C1084.895874,1321.841064 1084.954102,1291.196045 1084.957153,1260.551025 
	C1084.957275,1259.707031 1084.362183,1258.863159 1084.014648,1257.124268 
	C1083.653198,1253.696289 1083.660034,1250.180786 1082.868408,1246.855225 
	C1078.874878,1230.078979 1069.854980,1216.998169 1053.717896,1209.935669 
	C1042.727661,1205.125977 1031.169556,1204.087280 1019.047119,1204.776611 
	C999.686096,1205.877563 982.764038,1212.382324 967.482178,1223.923828 
	C964.477844,1226.192749 962.924744,1228.338989 965.796997,1232.014526 
	C967.909668,1234.718018 969.184021,1238.060181 971.009094,1241.008057 
	C975.627991,1248.468262 982.439392,1250.948730 990.657166,1247.895264 
	C994.674500,1246.402710 998.453369,1244.271606 1002.350464,1242.451538 
	C1009.516541,1239.104614 1017.020630,1237.205933 1024.949341,1238.078369 
	C1036.635986,1239.364624 1045.974731,1255.038086 1041.801025,1266.202271 
	C1041.530273,1266.926636 1040.496948,1267.748657 1039.734131,1267.842773 
	C1035.645752,1268.346558 1031.536255,1268.841309 1027.423340,1268.957275 
	C1014.636597,1269.317505 1002.167603,1271.525513 990.260498,1276.078369 
	C980.317871,1279.880005 971.003967,1285.056152 964.035706,1293.413818 
	C957.523193,1301.224854 956.255615,1310.610962 957.015869,1320.377808 
	C958.000549,1333.029907 963.346436,1342.978760 974.699341,1349.509155 
	C984.066895,1354.897705 994.147583,1355.060425 1004.482361,1355.093506 
	C1014.735229,1355.126343 1024.049438,1352.603394 1032.548340,1346.986694 
	C1037.179565,1343.926025 1041.713623,1340.718506 1046.358032,1337.531494 
	C1047.917358,1340.713501 1049.196655,1343.761353 1050.851440,1346.589478 
	C1052.902710,1350.095093 1055.500977,1353.099487 1060.098633,1353.070190 
	C1068.093750,1353.019043 1076.088501,1352.940796 1084.845215,1352.486084 
M394.845093,1627.486206 
	C394.860352,1593.014771 394.875610,1558.543457 395.217926,1523.456909 
	C401.597565,1520.118164 407.665833,1515.800415 414.423828,1513.651367 
	C427.174011,1509.596802 439.057922,1519.300781 439.006989,1532.580688 
	C438.891449,1562.729126 438.880310,1592.877808 438.849762,1623.026489 
	C438.848175,1624.604614 439.060150,1626.182861 439.189484,1627.996216 
	C452.435974,1627.996216 465.087341,1627.841919 477.731079,1628.083618 
	C481.886627,1628.163086 483.112335,1626.881836 483.082001,1622.732300 
	C482.906616,1598.746826 483.086578,1574.759155 482.951385,1550.773193 
	C482.900146,1541.677368 482.778625,1532.540039 481.882111,1523.501587 
	C480.782196,1512.412842 476.220062,1502.564941 468.749390,1494.217285 
	C452.849701,1476.451050 420.877655,1475.962402 403.096893,1488.255127 
	C398.991638,1491.093262 394.978180,1494.064209 390.587677,1497.214233 
	C389.099548,1489.952148 387.098602,1483.096069 379.511871,1482.340576 
	C370.207428,1481.414185 360.740448,1482.119751 351.411377,1482.119751 
	C351.224792,1483.187378 351.066956,1483.669556 351.066681,1484.151855 
	C351.040039,1530.792236 351.046875,1577.432495 350.961792,1624.072754 
	C350.956085,1627.200562 352.189209,1628.063843 355.109131,1628.033325 
	C368.099640,1627.897583 381.091736,1627.913208 394.845093,1627.486206 
M926.838623,1296.298096 
	C935.992188,1266.713501 945.145752,1237.129028 954.509460,1206.865234 
	C942.270813,1206.865234 931.120178,1206.621582 919.987671,1206.964111 
	C914.088806,1207.145630 910.475525,1210.910889 908.968384,1217.160278 
	C903.610901,1239.373047 898.284851,1261.593506 892.989014,1283.821045 
	C891.301514,1290.903931 889.745239,1298.018066 888.128906,1305.117798 
	C884.444946,1295.727539 881.586731,1286.309326 879.026184,1276.810669 
	C873.714233,1257.105713 868.666199,1237.329346 863.289795,1217.642456 
	C861.117737,1209.688965 857.252258,1207.001831 849.482605,1207.000977 
	C843.149353,1207.000244 836.815369,1206.922607 830.483154,1207.001709 
	C825.853638,1207.059448 821.902283,1208.683960 820.338135,1213.386597 
	C818.011841,1220.380249 815.959839,1227.469360 813.945679,1234.561768 
	C809.201843,1251.266357 804.602051,1268.011719 799.834473,1284.709351 
	C797.882263,1291.546631 795.647339,1298.302979 793.281372,1305.933472 
	C792.601990,1304.524048 792.213623,1304.002563 792.092468,1303.424805 
	C789.869690,1292.830933 787.805542,1282.202148 785.453247,1271.637329 
	C781.419617,1253.521240 777.077332,1235.473145 773.160706,1217.332520 
	C772.077087,1212.313477 769.989380,1208.473145 764.771423,1207.844116 
	C758.566711,1207.096069 752.269714,1207.012695 746.007507,1206.868774 
	C739.419861,1206.717285 732.826050,1206.834839 725.314575,1206.834839 
	C727.527466,1214.221558 729.378723,1220.643311 731.376526,1227.019165 
	C735.499390,1240.177979 739.767395,1253.291382 743.855591,1266.460693 
	C752.417786,1294.042358 760.939758,1321.636719 769.363708,1349.260742 
	C770.262390,1352.207642 771.855469,1353.071167 774.742249,1353.036377 
	C784.407410,1352.919678 794.074890,1352.988525 803.741516,1352.999268 
	C810.665344,1353.006958 812.387085,1351.973267 814.398438,1345.171387 
	C822.248047,1318.626709 829.964661,1292.042847 837.693420,1265.462646 
	C838.459229,1262.829102 838.971985,1260.121948 839.821716,1256.517700 
	C842.750854,1266.751465 845.310913,1275.739746 847.896423,1284.720825 
	C853.852417,1305.408325 859.793701,1326.100220 865.807312,1346.770996 
	C866.989075,1350.833374 869.595886,1353.097168 874.147034,1353.035522 
	C883.811890,1352.904419 893.494080,1352.681641 903.140381,1353.124512 
	C908.184387,1353.356079 909.981934,1351.357788 911.295898,1346.832642 
	C916.136047,1330.164062 921.390564,1313.615601 926.838623,1296.298096 
M252.524872,1308.972900 
	C249.644272,1307.074097 246.907013,1304.896118 243.855637,1303.330200 
	C235.459656,1299.021851 229.023865,1298.101685 222.832703,1307.613037 
	C218.463272,1314.325684 214.225983,1321.124390 209.756149,1328.157715 
	C211.320541,1329.835571 212.574249,1331.675049 214.265549,1332.920288 
	C240.843536,1352.489746 270.504852,1359.775513 302.772308,1352.841064 
	C323.059601,1348.481201 338.701019,1336.731812 347.471252,1317.253296 
	C353.368317,1304.156250 355.734894,1290.350708 352.890503,1276.208984 
	C350.479187,1264.220459 345.164062,1253.696777 334.823120,1246.088013 
	C324.426178,1238.437988 312.575409,1234.219482 300.666687,1229.882690 
	C290.524689,1226.189453 280.443451,1222.282837 270.541656,1217.994141 
	C264.695953,1215.462158 261.881958,1210.177124 262.281952,1203.940063 
	C262.800873,1195.848389 266.369965,1189.084229 274.399353,1186.218506 
	C284.690704,1182.545654 295.211121,1182.785278 305.358459,1186.977051 
	C311.911499,1189.683838 318.224121,1192.975830 324.626282,1196.043579 
	C328.958252,1198.119385 333.118347,1197.574585 335.680573,1193.660156 
	C340.813782,1185.818359 345.408630,1177.620361 350.064545,1169.477295 
	C350.400116,1168.890381 349.721344,1167.176636 349.016052,1166.632080 
	C345.130035,1163.631104 341.357635,1160.322754 337.055176,1158.048950 
	C317.516815,1147.723877 296.747192,1143.907227 274.747467,1146.930542 
	C257.103546,1149.355225 242.387650,1156.702881 230.738510,1170.564575 
	C217.029495,1186.877319 215.409088,1205.644287 219.623962,1225.070312 
	C223.714035,1243.921021 237.013062,1255.369263 254.680771,1261.755615 
	C267.642029,1266.440918 280.859497,1270.412598 293.873108,1274.958984 
	C305.579407,1279.048584 310.762238,1289.824951 308.240509,1299.254150 
	C304.908905,1311.711548 291.959930,1319.984009 279.241943,1317.869507 
	C270.088776,1316.347778 261.127106,1314.368408 252.524872,1308.972900 
M1319.496704,1349.174683 
	C1329.845215,1345.256592 1338.466431,1338.882568 1346.060303,1330.580322 
	C1342.343018,1325.749023 1338.847168,1320.839844 1334.967773,1316.255127 
	C1330.024658,1310.413208 1322.734375,1309.252563 1316.048950,1312.721558 
	C1311.841064,1314.904907 1307.616943,1317.078979 1303.284302,1318.995728 
	C1292.529663,1323.753296 1281.910156,1324.291626 1270.973267,1318.878906 
	C1260.783447,1313.836060 1256.567017,1305.124268 1254.154541,1294.900146 
	C1252.536499,1288.043091 1252.545288,1288.029541 1259.460449,1288.028320 
	C1285.280029,1288.024048 1311.099976,1287.959595 1336.918823,1288.092041 
	C1341.565552,1288.115845 1344.819580,1286.378662 1345.929810,1282.038940 
	C1346.818970,1278.563110 1347.173584,1274.796509 1346.933228,1271.214722 
	C1346.220459,1260.595825 1345.468628,1249.920288 1340.836426,1240.058350 
	C1334.746094,1227.092041 1325.285278,1217.132812 1312.405640,1211.085693 
	C1298.196899,1204.414429 1283.029053,1203.500366 1267.574463,1205.889282 
	C1244.736816,1209.419678 1227.896729,1221.469116 1216.929443,1241.620117 
	C1206.867188,1260.108398 1206.736694,1280.109131 1211.143799,1299.766113 
	C1217.064819,1326.175049 1232.953613,1345.097290 1259.664673,1352.337646 
	C1279.356079,1357.675415 1299.366455,1356.798340 1319.496704,1349.174683 
M398.942566,1216.274780 
	C392.828918,1222.332642 385.820892,1227.738525 380.814972,1234.604004 
	C373.624176,1244.466064 368.904602,1255.786377 369.023254,1268.409912 
	C369.123413,1279.067871 368.212036,1289.984497 370.179993,1300.323975 
	C374.371979,1322.347778 387.078735,1338.673950 407.556976,1348.456177 
	C424.249573,1356.430054 441.998199,1356.690308 459.658661,1353.906616 
	C481.913513,1350.398804 498.855072,1338.268433 509.043091,1318.076660 
	C518.990723,1298.361694 519.339661,1277.458496 514.285461,1256.255859 
	C509.442017,1235.937256 497.270081,1221.435303 478.815704,1212.270264 
	C470.916412,1208.347412 462.515900,1205.525024 453.352966,1205.953003 
	C443.034363,1206.435059 432.525909,1205.547974 422.429718,1207.232178 
	C414.549774,1208.546875 407.173859,1212.882812 398.942566,1216.274780 
M861.093140,1531.446777 
	C860.734680,1529.510498 860.546265,1527.524048 859.990417,1525.646118 
	C856.068604,1512.396973 849.713562,1500.764648 838.179138,1492.463501 
	C821.673828,1480.584839 803.229004,1478.096680 783.661133,1480.955322 
	C749.866455,1485.892334 727.391479,1512.895386 725.059387,1545.550537 
	C723.836853,1562.668335 726.014282,1579.448120 734.795410,1594.847168 
	C742.257568,1607.933472 752.433044,1618.041138 766.299438,1623.917358 
	C787.612854,1632.949219 809.377930,1632.021606 831.138733,1625.566895 
	C841.106750,1622.610107 849.795471,1617.236328 857.435486,1610.216187 
	C861.911682,1606.103149 861.894165,1605.071533 857.955139,1600.393555 
	C855.728027,1597.748901 853.125916,1595.322998 851.381714,1592.388916 
	C847.737183,1586.258301 841.609863,1583.934326 833.479797,1587.736206 
	C824.992981,1591.705200 816.818787,1596.187744 807.069702,1597.277100 
	C798.762146,1598.205078 791.348633,1596.752808 784.448547,1592.747925 
	C775.913025,1587.793457 771.978333,1579.551758 769.949036,1570.186890 
	C768.388672,1562.985596 768.283325,1562.999878 775.660889,1562.998901 
	C801.479187,1562.995850 827.297729,1562.934082 853.115417,1563.062622 
	C857.567322,1563.084717 861.442932,1561.329956 861.714050,1557.324951 
	C862.275330,1549.034302 861.498169,1540.653076 861.093140,1531.446777 
M1370.231445,1640.710938 
	C1380.124146,1617.520630 1390.027588,1594.334961 1399.906494,1571.138672 
	C1409.850342,1547.789917 1419.798462,1524.442749 1429.680542,1501.067871 
	C1432.275757,1494.929199 1434.633423,1488.690063 1437.357544,1481.850952 
	C1424.640503,1481.850952 1412.820679,1481.558838 1401.026978,1481.985962 
	C1395.872925,1482.172729 1391.982056,1485.194336 1390.163818,1490.498291 
	C1385.853271,1503.072266 1381.346191,1515.578857 1376.964111,1528.128540 
	C1372.321655,1541.423584 1367.731567,1554.736938 1362.702515,1569.242065 
	C1360.305786,1562.190308 1358.522217,1556.392944 1356.377808,1550.732422 
	C1348.967896,1531.173584 1341.360107,1511.689697 1333.984253,1492.118164 
	C1331.455688,1485.408936 1327.098999,1481.893677 1319.968628,1481.853271 
	C1308.973511,1481.790894 1297.977661,1481.822998 1286.982178,1481.856689 
	C1285.736694,1481.860596 1284.492065,1482.132568 1282.895142,1482.321777 
	C1283.249756,1483.325928 1283.423584,1483.929199 1283.670410,1484.500854 
	C1291.131470,1501.778687 1298.542725,1519.078369 1306.080444,1536.322754 
	C1317.132324,1561.606689 1328.302368,1586.839111 1339.311768,1612.141479 
	C1339.965088,1613.642944 1340.216675,1615.785767 1339.663452,1617.257446 
	C1338.048584,1621.553589 1336.010010,1625.699341 1333.995605,1629.834961 
	C1328.361450,1641.402710 1322.597778,1652.907349 1317.019531,1664.501709 
	C1315.627075,1667.396118 1314.741699,1670.534546 1313.456909,1674.010498 
	C1325.995605,1674.010498 1337.989624,1674.276367 1349.953979,1673.798462 
	C1352.516235,1673.696167 1356.116333,1671.487793 1357.274048,1669.238525 
	C1361.932373,1660.188232 1365.820190,1650.741577 1370.231445,1640.710938 
M692.533142,1561.974976 
	C702.757568,1535.496704 712.982056,1509.018433 723.472778,1481.850586 
	C710.635315,1481.850586 698.803955,1481.461426 687.021057,1482.046875 
	C682.467407,1482.273071 678.456726,1485.225220 676.784973,1490.151001 
	C675.520935,1493.875610 674.110168,1497.552368 672.918091,1501.299072 
	C664.301147,1528.382812 655.723450,1555.478882 647.144409,1582.535889 
	C646.891113,1582.150513 646.376343,1581.652344 646.196777,1581.053589 
	C637.109314,1550.745117 628.183777,1520.386353 618.772461,1490.178955 
	C617.877441,1487.306274 614.127869,1483.561768 611.419434,1483.312622 
	C597.918579,1482.071777 584.322754,1481.864136 569.738098,1481.249878 
	C588.948669,1530.834839 607.702026,1579.239502 626.591370,1627.995361 
	C638.236145,1627.995361 649.891602,1627.742798 661.526184,1628.124878 
	C665.911621,1628.268921 667.642273,1626.436035 669.027527,1622.799927 
	C676.673218,1602.730591 684.460327,1582.715210 692.533142,1561.974976 
M1089.142578,1505.652710 
	C1090.159790,1503.948364 1091.483398,1502.342651 1092.077271,1500.501709 
	C1092.423706,1499.427979 1092.033325,1497.331543 1091.237671,1496.801758 
	C1086.048218,1493.346924 1080.894287,1489.693481 1075.285645,1487.042480 
	C1061.029175,1480.303833 1046.001709,1479.218506 1030.349854,1480.788452 
	C1010.124573,1482.816895 988.433105,1497.624023 985.467224,1519.824829 
	C983.477051,1534.722168 990.185730,1555.246460 1003.345825,1561.126709 
	C1014.894470,1566.286743 1026.945801,1570.311035 1038.623047,1575.200195 
	C1042.807373,1576.952393 1046.931519,1579.310547 1050.387085,1582.218994 
	C1054.228271,1585.451904 1053.776733,1590.791138 1050.589478,1594.697144 
	C1046.799805,1599.341431 1041.616943,1600.575562 1036.126953,1600.963989 
	C1025.845581,1601.691528 1017.233337,1596.927612 1008.729553,1592.101318 
	C1003.008057,1588.853882 996.901733,1589.119385 992.719421,1593.935913 
	C989.302490,1597.870483 986.573608,1602.412354 983.633972,1606.748901 
	C980.339417,1611.609009 980.938293,1613.898193 986.042236,1617.064453 
	C1007.577759,1630.423584 1030.942139,1633.044678 1055.230469,1627.925781 
	C1066.455078,1625.560059 1076.548706,1620.380737 1084.073486,1611.021240 
	C1092.467285,1600.580566 1095.048828,1588.580322 1093.978394,1575.673706 
	C1093.281006,1567.266235 1089.431519,1560.221313 1083.131104,1554.392456 
	C1075.891602,1547.694824 1066.953857,1544.407837 1058.023560,1541.048584 
	C1050.032837,1538.042603 1041.752075,1535.700928 1034.036743,1532.122925 
	C1031.105835,1530.763794 1027.908691,1527.007202 1027.424194,1523.934570 
	C1026.252197,1516.502563 1031.905640,1511.717407 1040.177979,1510.951904 
	C1050.607666,1509.986816 1059.596680,1514.193848 1068.777954,1517.972290 
	C1075.448730,1520.717407 1080.160522,1519.264404 1084.157593,1513.347534 
	C1085.735718,1511.011353 1087.301880,1508.667114 1089.142578,1505.652710 
M1155.961670,1423.471802 
	C1147.235596,1415.389038 1130.005981,1414.552490 1121.436768,1422.721069 
	C1113.941772,1429.865723 1110.008057,1440.035278 1113.063477,1450.102905 
	C1115.809570,1459.150635 1126.399658,1467.480347 1136.009888,1468.151489 
	C1146.902588,1468.912231 1158.343872,1462.361816 1162.772949,1452.829102 
	C1167.357178,1442.962646 1165.111816,1432.680420 1155.961670,1423.471802 
M506.914368,1443.392578 
	C507.678497,1457.255859 520.191956,1469.026978 533.991516,1468.062378 
	C549.169739,1467.001465 560.889832,1456.612305 559.921692,1440.839478 
	C559.223938,1429.471558 549.627075,1415.796631 529.587585,1416.925415 
	C519.348267,1417.502197 506.766571,1428.938232 506.914368,1443.392578 
z"/>
<path fill="#FFA000" opacity="1.000000" stroke="none" 
	d="
M515.837158,778.052368 
	C533.546387,786.844360 551.271667,795.604126 568.961609,804.434692 
	C611.544556,825.691650 654.090942,847.021912 696.690674,868.245117 
	C727.760864,883.724304 758.912109,899.040955 789.965515,914.553650 
	C792.933960,916.036499 795.227173,915.932251 798.152710,914.452026 
	C819.284729,903.759766 840.499084,893.230103 861.704590,882.683472 
	C910.112366,858.607605 958.511047,834.513489 1006.952087,810.504822 
	C1028.488647,799.830688 1050.118530,789.344727 1072.195557,778.151184 
	C1072.788330,776.539124 1072.981445,775.549316 1072.981689,774.559448 
	C1072.997803,717.580933 1073.006470,660.602478 1072.944702,603.624023 
	C1072.943359,602.387573 1072.119263,601.152039 1071.678955,599.916077 
	C1048.290649,611.899231 1024.930054,623.937073 1001.504028,635.846008 
	C986.159973,643.646362 970.703003,651.224182 955.329529,658.967041 
	C937.937012,667.726868 920.554871,676.508057 903.221497,685.384155 
	C895.311829,689.434631 887.530334,693.735535 879.000122,698.291748 
	C879.000122,696.228516 879.000122,694.990601 879.000122,693.752686 
	C879.000122,650.092712 879.042297,606.432556 878.922546,562.772888 
	C878.912598,559.156860 880.001770,557.419556 883.342041,555.759766 
	C911.116272,541.958557 938.762817,527.899902 966.426147,513.876221 
	C982.783691,505.583954 999.101868,497.213989 1015.437683,488.878967 
	C1031.773071,480.544159 1048.108887,472.210297 1064.443726,463.874451 
	C1081.502686,455.169067 1098.560547,446.460999 1115.619507,437.755646 
	C1131.954346,429.419800 1148.312500,421.129242 1164.612183,412.725189 
	C1169.645752,410.129974 1174.520874,407.227753 1180.011108,404.163147 
	C1174.233887,400.878815 1168.611206,397.573059 1162.889526,394.448883 
	C1140.001465,381.951416 1117.060181,369.551331 1094.181763,357.036194 
	C1074.289429,346.154480 1054.467041,335.145142 1034.592651,324.230438 
	C1010.176819,310.821686 985.737427,297.455872 961.311401,284.065674 
	C940.720459,272.777802 920.131409,261.486359 899.547241,250.186081 
	C893.589111,246.915207 887.585205,243.718002 881.755188,240.231369 
	C880.498718,239.479935 879.117676,237.627121 879.114868,236.278915 
	C879.019775,190.456741 879.084167,144.634247 879.132141,98.811813 
	C879.132324,98.660233 879.228271,98.508751 879.400146,98.000557 
	C886.020264,101.346977 892.652954,104.576294 899.167664,108.028183 
	C905.464539,111.364632 911.581055,115.041641 917.879639,118.374580 
	C936.792969,128.382584 955.786560,138.239029 974.692566,148.260727 
	C996.321289,159.725616 1017.877441,171.327393 1039.488281,182.826141 
	C1054.938354,191.046906 1070.445923,199.159882 1085.893433,207.385590 
	C1106.781616,218.508438 1127.622559,229.720154 1148.510986,240.842728 
	C1163.958130,249.067932 1179.461792,257.187042 1194.916748,265.397644 
	C1216.388916,276.804962 1237.834961,288.261200 1259.299805,299.682526 
	C1279.901367,310.644592 1300.523804,321.567902 1321.111816,332.555176 
	C1326.386719,335.370239 1331.567139,338.362488 1336.912354,342.070404 
	C1337.000366,383.366333 1336.966797,423.865173 1336.933105,464.364014 
	C1310.337646,477.904327 1283.744507,491.449341 1257.145752,504.983154 
	C1240.509766,513.447815 1223.864746,521.894836 1207.227417,530.356934 
	C1206.934326,530.505981 1206.715454,530.828186 1206.414551,530.930664 
	C1198.753296,533.541870 1196.729736,538.543884 1196.759888,546.798950 
	C1197.129028,647.794861 1197.000000,748.792603 1197.000000,849.789856 
	C1197.000000,851.618652 1197.000000,853.447449 1197.000000,855.770935 
	C1170.035400,869.002991 1142.956787,882.221619 1115.942017,895.569824 
	C1094.658936,906.085938 1073.455322,916.763062 1052.215332,927.366577 
	C1026.369873,940.269165 1000.536377,953.195740 974.674438,966.065002 
	C925.539185,990.515442 876.394287,1014.946594 827.236755,1039.352173 
	C817.346191,1044.262695 807.455261,1049.188232 797.387634,1053.713501 
	C795.390015,1054.611328 792.209167,1054.481201 790.208130,1053.513550 
	C774.105164,1045.726685 758.169373,1037.594849 742.153870,1029.625977 
	C693.015747,1005.176086 643.875732,980.729797 594.715759,956.323792 
	C545.269104,931.775452 495.799011,907.274231 446.335907,882.758911 
	C428.487762,873.912781 410.630249,865.085510 392.442322,855.587891 
	C392.071106,852.596375 392.002777,850.266663 392.002655,847.936951 
	C391.997345,746.384033 392.003876,644.831055 391.963135,543.278137 
	C391.962128,540.834534 391.441254,538.391235 391.162842,535.947754 
	C376.706299,528.631653 362.239166,521.336243 347.795898,513.994019 
	C330.581207,505.242981 313.376770,496.471558 296.186798,487.672028 
	C280.294617,479.536835 264.423615,471.360229 248.553528,463.182037 
	C246.407715,462.076233 244.321350,460.855072 242.086151,458.897827 
	C241.923035,421.071350 241.881210,384.034454 241.839371,346.997498 
	C245.798111,344.556183 249.638687,341.892914 253.735794,339.711456 
	C272.769043,329.577606 291.893738,319.615692 310.946838,309.519012 
	C332.432098,298.133392 353.872681,286.663391 375.338654,275.241333 
	C395.940063,264.279327 416.547699,253.329102 437.155151,242.378479 
	C458.482300,231.045425 479.818665,219.729782 501.139557,208.384995 
	C521.886047,197.345840 542.606995,186.258621 563.359497,175.230713 
	C584.540955,163.974884 605.762878,152.794937 626.938232,141.527573 
	C647.831848,130.410095 668.690125,119.225967 689.562561,108.068573 
	C695.802856,104.732788 702.038696,101.388573 708.771301,97.783302 
	C708.859497,99.761086 708.990723,101.335754 708.991150,102.910454 
	C709.002136,146.571167 708.950500,190.232025 709.086670,233.892319 
	C709.098511,237.691513 707.986023,239.480209 704.524780,241.354477 
	C683.017944,253.000443 661.764709,265.113342 640.355103,276.940643 
	C625.189209,285.318695 609.875244,293.428314 594.688721,301.769470 
	C572.261169,314.087799 549.909912,326.545074 527.483276,338.865143 
	C515.134216,345.649078 502.658478,352.202423 490.308716,358.985199 
	C468.023376,371.224823 445.801117,383.579254 423.525940,395.837463 
	C418.443085,398.634613 413.252106,401.235352 407.466309,404.263947 
	C430.732086,416.079041 453.237305,427.514618 475.748810,438.937836 
	C493.114014,447.749664 510.495056,456.530212 527.854248,465.353760 
	C543.479431,473.295959 559.082336,481.282104 574.699097,489.240845 
	C592.340210,498.231262 609.985413,507.213715 627.629700,516.197754 
	C644.549438,524.812805 661.488586,533.389893 678.383484,542.053467 
	C687.630066,546.795044 696.865173,551.568237 705.944641,556.616638 
	C707.397095,557.424255 708.867859,559.752197 708.873474,561.382263 
	C709.030701,606.707458 708.999573,652.033264 708.999573,697.953613 
	C645.033020,665.264832 581.377075,632.734802 517.265381,599.901367 
	C516.541443,599.760132 516.273376,599.922241 516.005249,600.084351 
	C516.005249,600.084351 515.980347,599.996033 515.762085,600.310120 
	C515.363342,602.428040 515.026123,604.231750 515.025208,606.035645 
	C514.997375,661.432007 514.994019,716.828369 515.037659,772.224731 
	C515.039185,774.167480 515.558960,776.109802 515.837158,778.052368 
z"/>
<path fill="#234465" opacity="1.000000" stroke="none" 
	d="
M545.122192,1238.091309 
	C541.698547,1237.100952 538.269409,1236.129150 534.852356,1235.116455 
	C526.869324,1232.750488 524.893250,1230.279419 525.039246,1222.220703 
	C525.122192,1217.641357 523.963989,1211.577759 526.377869,1208.942383 
	C528.495972,1206.629761 534.813660,1208.104004 539.278687,1208.014648 
	C545.594604,1207.888306 546.143616,1207.536011 545.964478,1201.100830 
	C545.638123,1189.376587 547.176086,1178.278442 553.803772,1168.098022 
	C561.248962,1156.661865 571.881470,1149.632568 584.555359,1146.298828 
	C595.675354,1143.373779 607.242004,1142.753174 618.731384,1145.834351 
	C621.953918,1146.698486 623.137024,1148.026489 623.041321,1151.234619 
	C622.892700,1156.219849 623.216370,1161.220581 623.028809,1166.202881 
	C622.779968,1172.813110 619.282166,1175.956543 612.585388,1176.002930 
	C599.611389,1176.092896 591.406494,1180.593994 589.434021,1189.625244 
	C588.285461,1194.884155 588.506104,1200.441895 588.241272,1206.703247 
	C589.180786,1207.689209 589.989502,1207.965088 590.798767,1207.966431 
	C607.101562,1207.995117 623.404480,1208.008545 639.707153,1207.958008 
	C640.775208,1207.954712 641.841492,1207.413208 642.908630,1207.122070 
	C645.591492,1196.859985 648.651794,1186.677490 650.840149,1176.311035 
	C652.659790,1167.691284 655.132202,1164.987061 663.695862,1165.001587 
	C670.173523,1165.012695 676.651184,1165.036255 683.581543,1165.558350 
	C684.023438,1177.644409 683.972900,1189.226807 684.044800,1200.808350 
	C684.055664,1202.555664 684.637939,1204.299683 684.955872,1206.045166 
	C684.955872,1206.045166 685.056274,1206.398804 685.214050,1206.969971 
	C696.944336,1207.695190 708.516907,1207.848999 720.089417,1208.002808 
	C720.089417,1208.002808 720.021301,1208.005615 720.017090,1208.444092 
	C720.017090,1218.276001 720.021179,1227.669189 720.025269,1237.062500 
	C720.025330,1237.062500 720.021301,1236.994385 719.580322,1236.997314 
	C709.387695,1237.000732 699.635254,1236.944092 689.884827,1237.056763 
	C688.244568,1237.075806 686.612732,1237.826050 684.976990,1238.238281 
	C684.976990,1238.238281 685.057739,1238.600586 684.754883,1239.115967 
	C684.307861,1240.441284 684.038574,1241.251343 684.037598,1242.061523 
	C684.010620,1264.105469 683.996338,1286.149536 684.045288,1308.193359 
	C684.048096,1309.450684 684.606445,1310.706787 684.906250,1311.963379 
	C684.838806,1320.623657 691.892151,1322.519531 699.060547,1320.143433 
	C706.821289,1317.570923 709.183594,1318.015137 713.579895,1324.927490 
	C716.485291,1329.495605 719.236389,1334.170288 722.322937,1338.612183 
	C724.348450,1341.526855 724.264404,1343.554810 721.083557,1345.430664 
	C711.275574,1351.215088 700.863953,1355.018433 689.348816,1354.958008 
	C683.573486,1354.927612 677.787842,1354.613281 672.028870,1354.152588 
	C658.066345,1353.035645 644.035645,1339.065674 642.115417,1324.528198 
	C641.575928,1320.443481 641.067505,1316.317017 641.049438,1312.207397 
	C640.941895,1287.755249 640.982422,1263.302490 640.639587,1238.102661 
	C623.757996,1237.258301 607.210022,1237.152466 590.661865,1237.103271 
	C590.122314,1237.101685 589.581055,1237.676514 589.040527,1237.982666 
	C589.026489,1274.393433 588.937744,1310.804565 589.093506,1347.214600 
	C589.112854,1351.743286 587.908997,1353.225342 583.269836,1353.102051 
	C571.141235,1352.780029 558.999023,1352.968384 546.418091,1352.454712 
	C545.982178,1315.565552 546.001221,1279.175049 545.961365,1242.784424 
	C545.959656,1241.219849 545.414307,1239.655640 545.122192,1238.091309 
z"/>
<path fill="#234465" opacity="1.000000" stroke="none" 
	d="
M323.854645,1423.929443 
	C323.902863,1466.042847 323.972931,1508.156128 323.988556,1550.269531 
	C323.994843,1567.137695 318.756317,1582.452515 309.311981,1596.238770 
	C296.587250,1614.813721 278.315277,1625.331055 256.529205,1628.713379 
	C236.139740,1631.878906 215.534576,1631.717896 196.152039,1622.927734 
	C170.359146,1611.230469 154.575790,1591.546997 149.968826,1563.326904 
	C149.572998,1560.902222 149.315948,1558.454956 149.055603,1555.115479 
	C149.078064,1512.579102 149.088028,1470.945312 148.925629,1429.312134 
	C148.909317,1425.134277 150.299149,1423.871826 154.388123,1423.924194 
	C168.208069,1424.101318 182.032150,1423.953247 195.854660,1423.929443 
	C195.902863,1465.424927 195.811859,1506.921387 196.072937,1548.415527 
	C196.167389,1563.426025 201.258667,1576.623047 214.607239,1584.710938 
	C219.568085,1587.716675 225.957336,1589.026245 231.848877,1589.644165 
	C237.475891,1590.234131 243.475388,1589.636230 249.008209,1588.303223 
	C263.741913,1584.753662 271.230164,1573.995972 274.891357,1560.094849 
	C275.678497,1557.106201 275.647430,1553.902100 276.362305,1550.070068 
	C276.820526,1547.352051 276.986847,1545.361084 276.987671,1543.370239 
	C277.004333,1503.550415 277.001923,1463.730469 277.003326,1423.910645 
	C277.003326,1423.910645 277.005615,1423.978882 277.444122,1423.982910 
	C293.206635,1423.967896 308.530640,1423.948608 323.854645,1423.929443 
z"/>
<path fill="#244566" opacity="1.000000" stroke="none" 
	d="
M926.663940,1296.660156 
	C921.390564,1313.615601 916.136047,1330.164062 911.295898,1346.832642 
	C909.981934,1351.357788 908.184387,1353.356079 903.140381,1353.124512 
	C893.494080,1352.681641 883.811890,1352.904419 874.147034,1353.035522 
	C869.595886,1353.097168 866.989075,1350.833374 865.807312,1346.770996 
	C859.793701,1326.100220 853.852417,1305.408325 847.896423,1284.720825 
	C845.310913,1275.739746 842.750854,1266.751465 839.821716,1256.517700 
	C838.971985,1260.121948 838.459229,1262.829102 837.693420,1265.462646 
	C829.964661,1292.042847 822.248047,1318.626709 814.398438,1345.171387 
	C812.387085,1351.973267 810.665344,1353.006958 803.741516,1352.999268 
	C794.074890,1352.988525 784.407410,1352.919678 774.742249,1353.036377 
	C771.855469,1353.071167 770.262390,1352.207642 769.363708,1349.260742 
	C760.939758,1321.636719 752.417786,1294.042358 743.855591,1266.460693 
	C739.767395,1253.291382 735.499390,1240.177979 731.376526,1227.019165 
	C729.378723,1220.643311 727.527466,1214.221558 725.314575,1206.834839 
	C732.826050,1206.834839 739.419861,1206.717285 746.007507,1206.868774 
	C752.269714,1207.012695 758.566711,1207.096069 764.771423,1207.844116 
	C769.989380,1208.473145 772.077087,1212.313477 773.160706,1217.332520 
	C777.077332,1235.473145 781.419617,1253.521240 785.453247,1271.637329 
	C787.805542,1282.202148 789.869690,1292.830933 792.092468,1303.424805 
	C792.213623,1304.002563 792.601990,1304.524048 793.281372,1305.933472 
	C795.647339,1298.302979 797.882263,1291.546631 799.834473,1284.709351 
	C804.602051,1268.011719 809.201843,1251.266357 813.945679,1234.561768 
	C815.959839,1227.469360 818.011841,1220.380249 820.338135,1213.386597 
	C821.902283,1208.683960 825.853638,1207.059448 830.483154,1207.001709 
	C836.815369,1206.922607 843.149353,1207.000244 849.482605,1207.000977 
	C857.252258,1207.001831 861.117737,1209.688965 863.289795,1217.642456 
	C868.666199,1237.329346 873.714233,1257.105713 879.026184,1276.810669 
	C881.586731,1286.309326 884.444946,1295.727539 888.128906,1305.117798 
	C889.745239,1298.018066 891.301514,1290.903931 892.989014,1283.821045 
	C898.284851,1261.593506 903.610901,1239.373047 908.968384,1217.160278 
	C910.475525,1210.910889 914.088806,1207.145630 919.987671,1206.964111 
	C931.120178,1206.621582 942.270813,1206.865234 954.509460,1206.865234 
	C945.145752,1237.129028 935.992188,1266.713501 926.663940,1296.660156 
z"/>
<path fill="#244566" opacity="1.000000" stroke="none" 
	d="
M252.804382,1309.215820 
	C261.127106,1314.368408 270.088776,1316.347778 279.241943,1317.869507 
	C291.959930,1319.984009 304.908905,1311.711548 308.240509,1299.254150 
	C310.762238,1289.824951 305.579407,1279.048584 293.873108,1274.958984 
	C280.859497,1270.412598 267.642029,1266.440918 254.680771,1261.755615 
	C237.013062,1255.369263 223.714035,1243.921021 219.623962,1225.070312 
	C215.409088,1205.644287 217.029495,1186.877319 230.738510,1170.564575 
	C242.387650,1156.702881 257.103546,1149.355225 274.747467,1146.930542 
	C296.747192,1143.907227 317.516815,1147.723877 337.055176,1158.048950 
	C341.357635,1160.322754 345.130035,1163.631104 349.016052,1166.632080 
	C349.721344,1167.176636 350.400116,1168.890381 350.064545,1169.477295 
	C345.408630,1177.620361 340.813782,1185.818359 335.680573,1193.660156 
	C333.118347,1197.574585 328.958252,1198.119385 324.626282,1196.043579 
	C318.224121,1192.975830 311.911499,1189.683838 305.358459,1186.977051 
	C295.211121,1182.785278 284.690704,1182.545654 274.399353,1186.218506 
	C266.369965,1189.084229 262.800873,1195.848389 262.281952,1203.940063 
	C261.881958,1210.177124 264.695953,1215.462158 270.541656,1217.994141 
	C280.443451,1222.282837 290.524689,1226.189453 300.666687,1229.882690 
	C312.575409,1234.219482 324.426178,1238.437988 334.823120,1246.088013 
	C345.164062,1253.696777 350.479187,1264.220459 352.890503,1276.208984 
	C355.734894,1290.350708 353.368317,1304.156250 347.471252,1317.253296 
	C338.701019,1336.731812 323.059601,1348.481201 302.772308,1352.841064 
	C270.504852,1359.775513 240.843536,1352.489746 214.265549,1332.920288 
	C212.574249,1331.675049 211.320541,1329.835571 209.756149,1328.157715 
	C214.225983,1321.124390 218.463272,1314.325684 222.832703,1307.613037 
	C229.023865,1298.101685 235.459656,1299.021851 243.855637,1303.330200 
	C246.907013,1304.896118 249.644272,1307.074097 252.804382,1309.215820 
z"/>
<path fill="#22405E" opacity="1.000000" stroke="none" 
	d="
M1319.108398,1349.244263 
	C1299.366455,1356.798340 1279.356079,1357.675415 1259.664673,1352.337646 
	C1232.953613,1345.097290 1217.064819,1326.175049 1211.143799,1299.766113 
	C1206.736694,1280.109131 1206.867188,1260.108398 1216.929443,1241.620117 
	C1227.896729,1221.469116 1244.736816,1209.419678 1267.574463,1205.889282 
	C1283.029053,1203.500366 1298.196899,1204.414429 1312.405640,1211.085693 
	C1325.285278,1217.132812 1334.746094,1227.092041 1340.836426,1240.058350 
	C1345.468628,1249.920288 1346.220459,1260.595825 1346.933228,1271.214722 
	C1347.173584,1274.796509 1346.818970,1278.563110 1345.929810,1282.038940 
	C1344.819580,1286.378662 1341.565552,1288.115845 1336.918823,1288.092041 
	C1311.099976,1287.959595 1285.280029,1288.024048 1259.460449,1288.028320 
	C1252.545288,1288.029541 1252.536499,1288.043091 1254.154541,1294.900146 
	C1256.567017,1305.124268 1260.783447,1313.836060 1270.973267,1318.878906 
	C1281.910156,1324.291626 1292.529663,1323.753296 1303.284302,1318.995728 
	C1307.616943,1317.078979 1311.841064,1314.904907 1316.048950,1312.721558 
	C1322.734375,1309.252563 1330.024658,1310.413208 1334.967773,1316.255127 
	C1338.847168,1320.839844 1342.343018,1325.749023 1346.060303,1330.580322 
	C1338.466431,1338.882568 1329.845215,1345.256592 1319.108398,1349.244263 
M1253.852905,1261.602783 
	C1253.683350,1261.415894 1253.513672,1261.228882 1253.344116,1261.041992 
	C1253.295654,1261.172485 1253.188477,1261.406982 1253.207642,1261.417969 
	C1253.505859,1261.586304 1253.820557,1261.725830 1254.485474,1262.647339 
	C1271.589233,1262.647339 1288.693115,1262.647339 1305.796875,1262.647339 
	C1305.798096,1262.417114 1305.799194,1262.186768 1305.800415,1261.956543 
	C1288.554565,1261.956543 1271.308716,1261.956543 1253.852905,1261.602783 
z"/>
<path fill="#244566" opacity="1.000000" stroke="none" 
	d="
M399.258270,1216.075439 
	C407.173859,1212.882812 414.549774,1208.546875 422.429718,1207.232178 
	C432.525909,1205.547974 443.034363,1206.435059 453.352966,1205.953003 
	C462.515900,1205.525024 470.916412,1208.347412 478.815704,1212.270264 
	C497.270081,1221.435303 509.442017,1235.937256 514.285461,1256.255859 
	C519.339661,1277.458496 518.990723,1298.361694 509.043091,1318.076660 
	C498.855072,1338.268433 481.913513,1350.398804 459.658661,1353.906616 
	C441.998199,1356.690308 424.249573,1356.430054 407.556976,1348.456177 
	C387.078735,1338.673950 374.371979,1322.347778 370.179993,1300.323975 
	C368.212036,1289.984497 369.123413,1279.067871 369.023254,1268.409912 
	C368.904602,1255.786377 373.624176,1244.466064 380.814972,1234.604004 
	C385.820892,1227.738525 392.828918,1222.332642 399.258270,1216.075439 
M421.655060,1247.100098 
	C419.812897,1250.860840 417.317078,1254.445190 416.245941,1258.413940 
	C412.376068,1272.752197 411.972351,1287.167969 416.083893,1301.652222 
	C418.527802,1310.261719 422.192444,1317.562988 431.417206,1320.431885 
	C433.878571,1321.197388 436.428741,1321.718140 438.969116,1322.181152 
	C447.153961,1323.673462 454.658203,1321.997803 460.815094,1316.345215 
	C469.899628,1308.005005 471.343292,1296.423340 471.720459,1285.242798 
	C472.042816,1275.687378 470.715088,1265.857788 468.524658,1256.523193 
	C467.335236,1251.454468 463.777161,1245.878418 459.612000,1242.793213 
	C451.034241,1236.439575 440.758453,1236.340210 430.874512,1239.978027 
	C427.588287,1241.187622 424.990326,1244.267334 421.655060,1247.100098 
z"/>
<path fill="#244565" opacity="1.000000" stroke="none" 
	d="
M394.083252,1627.874023 
	C381.091736,1627.913208 368.099640,1627.897583 355.109131,1628.033325 
	C352.189209,1628.063843 350.956085,1627.200562 350.961792,1624.072754 
	C351.046875,1577.432495 351.040039,1530.792236 351.066681,1484.151855 
	C351.066956,1483.669556 351.224792,1483.187378 351.411377,1482.119751 
	C360.740448,1482.119751 370.207428,1481.414185 379.511871,1482.340576 
	C387.098602,1483.096069 389.099548,1489.952148 390.587677,1497.214233 
	C394.978180,1494.064209 398.991638,1491.093262 403.096893,1488.255127 
	C420.877655,1475.962402 452.849701,1476.451050 468.749390,1494.217285 
	C476.220062,1502.564941 480.782196,1512.412842 481.882111,1523.501587 
	C482.778625,1532.540039 482.900146,1541.677368 482.951385,1550.773193 
	C483.086578,1574.759155 482.906616,1598.746826 483.082001,1622.732300 
	C483.112335,1626.881836 481.886627,1628.163086 477.731079,1628.083618 
	C465.087341,1627.841919 452.435974,1627.996216 439.189484,1627.996216 
	C439.060150,1626.182861 438.848175,1624.604614 438.849762,1623.026489 
	C438.880310,1592.877808 438.891449,1562.729126 439.006989,1532.580688 
	C439.057922,1519.300781 427.174011,1509.596802 414.423828,1513.651367 
	C407.665833,1515.800415 401.597565,1520.118164 394.746429,1524.045654 
	C394.188477,1525.290771 394.026215,1525.947388 394.026428,1526.603882 
	C394.036621,1560.360596 394.060699,1594.117310 394.083252,1627.874023 
z"/>
<path fill="#244566" opacity="1.000000" stroke="none" 
	d="
M861.182251,1531.877930 
	C861.498169,1540.653076 862.275330,1549.034302 861.714050,1557.324951 
	C861.442932,1561.329956 857.567322,1563.084717 853.115417,1563.062622 
	C827.297729,1562.934082 801.479187,1562.995850 775.660889,1562.998901 
	C768.283325,1562.999878 768.388672,1562.985596 769.949036,1570.186890 
	C771.978333,1579.551758 775.913025,1587.793457 784.448547,1592.747925 
	C791.348633,1596.752808 798.762146,1598.205078 807.069702,1597.277100 
	C816.818787,1596.187744 824.992981,1591.705200 833.479797,1587.736206 
	C841.609863,1583.934326 847.737183,1586.258301 851.381714,1592.388916 
	C853.125916,1595.322998 855.728027,1597.748901 857.955139,1600.393555 
	C861.894165,1605.071533 861.911682,1606.103149 857.435486,1610.216187 
	C849.795471,1617.236328 841.106750,1622.610107 831.138733,1625.566895 
	C809.377930,1632.021606 787.612854,1632.949219 766.299438,1623.917358 
	C752.433044,1618.041138 742.257568,1607.933472 734.795410,1594.847168 
	C726.014282,1579.448120 723.836853,1562.668335 725.059387,1545.550537 
	C727.391479,1512.895386 749.866455,1485.892334 783.661133,1480.955322 
	C803.229004,1478.096680 821.673828,1480.584839 838.179138,1492.463501 
	C849.713562,1500.764648 856.068604,1512.396973 859.990417,1525.646118 
	C860.546265,1527.524048 860.734680,1529.510498 861.182251,1531.877930 
M822.902893,1535.941528 
	C821.764954,1518.213257 812.199646,1510.121460 797.568848,1510.359253 
	C781.611572,1510.618408 772.856567,1518.525879 770.023865,1537.517578 
	C770.480896,1537.670898 770.937622,1537.957397 771.394958,1537.958130 
	C787.460022,1537.985962 803.525269,1538.011841 819.590027,1537.938721 
	C820.735901,1537.933472 821.878357,1537.173462 822.902893,1535.941528 
z"/>
<path fill="#244565" opacity="1.000000" stroke="none" 
	d="
M1084.083496,1352.874023 
	C1076.088501,1352.940796 1068.093750,1353.019043 1060.098633,1353.070190 
	C1055.500977,1353.099487 1052.902710,1350.095093 1050.851440,1346.589478 
	C1049.196655,1343.761353 1047.917358,1340.713501 1046.358032,1337.531494 
	C1041.713623,1340.718506 1037.179565,1343.926025 1032.548340,1346.986694 
	C1024.049438,1352.603394 1014.735229,1355.126343 1004.482361,1355.093506 
	C994.147583,1355.060425 984.066895,1354.897705 974.699341,1349.509155 
	C963.346436,1342.978760 958.000549,1333.029907 957.015869,1320.377808 
	C956.255615,1310.610962 957.523193,1301.224854 964.035706,1293.413818 
	C971.003967,1285.056152 980.317871,1279.880005 990.260498,1276.078369 
	C1002.167603,1271.525513 1014.636597,1269.317505 1027.423340,1268.957275 
	C1031.536255,1268.841309 1035.645752,1268.346558 1039.734131,1267.842773 
	C1040.496948,1267.748657 1041.530273,1266.926636 1041.801025,1266.202271 
	C1045.974731,1255.038086 1036.635986,1239.364624 1024.949341,1238.078369 
	C1017.020630,1237.205933 1009.516541,1239.104614 1002.350464,1242.451538 
	C998.453369,1244.271606 994.674500,1246.402710 990.657166,1247.895264 
	C982.439392,1250.948730 975.627991,1248.468262 971.009094,1241.008057 
	C969.184021,1238.060181 967.909668,1234.718018 965.796997,1232.014526 
	C962.924744,1228.338989 964.477844,1226.192749 967.482178,1223.923828 
	C982.764038,1212.382324 999.686096,1205.877563 1019.047119,1204.776611 
	C1031.169556,1204.087280 1042.727661,1205.125977 1053.717896,1209.935669 
	C1069.854980,1216.998169 1078.874878,1230.078979 1082.868408,1246.855225 
	C1083.660034,1250.180786 1083.653198,1253.696289 1084.013916,1258.039307 
	C1084.036621,1290.260864 1084.060059,1321.567383 1084.083496,1352.874023 
M1007.115845,1300.427979 
	C1005.118042,1302.143311 1002.770508,1303.588745 1001.195618,1305.630249 
	C997.987915,1309.787964 998.481384,1314.572876 999.961243,1319.271484 
	C1001.327698,1323.610474 1004.892761,1325.843872 1008.933228,1325.779541 
	C1015.284851,1325.678223 1021.815796,1325.267334 1027.916870,1323.651611 
	C1037.634644,1321.078247 1042.002319,1314.466187 1042.001953,1304.600708 
	C1042.001953,1302.605835 1041.812378,1300.588989 1042.040283,1298.620605 
	C1042.493286,1294.709106 1040.598755,1293.347290 1037.108032,1294.035767 
	C1027.319214,1295.966309 1017.561829,1298.056274 1007.115845,1300.427979 
z"/>
<path fill="#244566" opacity="1.000000" stroke="none" 
	d="
M1370.112061,1641.076172 
	C1365.820190,1650.741577 1361.932373,1660.188232 1357.274048,1669.238525 
	C1356.116333,1671.487793 1352.516235,1673.696167 1349.953979,1673.798462 
	C1337.989624,1674.276367 1325.995605,1674.010498 1313.456909,1674.010498 
	C1314.741699,1670.534546 1315.627075,1667.396118 1317.019531,1664.501709 
	C1322.597778,1652.907349 1328.361450,1641.402710 1333.995605,1629.834961 
	C1336.010010,1625.699341 1338.048584,1621.553589 1339.663452,1617.257446 
	C1340.216675,1615.785767 1339.965088,1613.642944 1339.311768,1612.141479 
	C1328.302368,1586.839111 1317.132324,1561.606689 1306.080444,1536.322754 
	C1298.542725,1519.078369 1291.131470,1501.778687 1283.670410,1484.500854 
	C1283.423584,1483.929199 1283.249756,1483.325928 1282.895142,1482.321777 
	C1284.492065,1482.132568 1285.736694,1481.860596 1286.982178,1481.856689 
	C1297.977661,1481.822998 1308.973511,1481.790894 1319.968628,1481.853271 
	C1327.098999,1481.893677 1331.455688,1485.408936 1333.984253,1492.118164 
	C1341.360107,1511.689697 1348.967896,1531.173584 1356.377808,1550.732422 
	C1358.522217,1556.392944 1360.305786,1562.190308 1362.702515,1569.242065 
	C1367.731567,1554.736938 1372.321655,1541.423584 1376.964111,1528.128540 
	C1381.346191,1515.578857 1385.853271,1503.072266 1390.163818,1490.498291 
	C1391.982056,1485.194336 1395.872925,1482.172729 1401.026978,1481.985962 
	C1412.820679,1481.558838 1424.640503,1481.850952 1437.357544,1481.850952 
	C1434.633423,1488.690063 1432.275757,1494.929199 1429.680542,1501.067871 
	C1419.798462,1524.442749 1409.850342,1547.789917 1399.906494,1571.138672 
	C1390.027588,1594.334961 1380.124146,1617.520630 1370.112061,1641.076172 
z"/>
<path fill="#244566" opacity="1.000000" stroke="none" 
	d="
M692.366089,1562.328125 
	C684.460327,1582.715210 676.673218,1602.730591 669.027527,1622.799927 
	C667.642273,1626.436035 665.911621,1628.268921 661.526184,1628.124878 
	C649.891602,1627.742798 638.236145,1627.995361 626.591370,1627.995361 
	C607.702026,1579.239502 588.948669,1530.834839 569.738098,1481.249878 
	C584.322754,1481.864136 597.918579,1482.071777 611.419434,1483.312622 
	C614.127869,1483.561768 617.877441,1487.306274 618.772461,1490.178955 
	C628.183777,1520.386353 637.109314,1550.745117 646.196777,1581.053589 
	C646.376343,1581.652344 646.891113,1582.150513 647.144409,1582.535889 
	C655.723450,1555.478882 664.301147,1528.382812 672.918091,1501.299072 
	C674.110168,1497.552368 675.520935,1493.875610 676.784973,1490.151001 
	C678.456726,1485.225220 682.467407,1482.273071 687.021057,1482.046875 
	C698.803955,1481.461426 710.635315,1481.850586 723.472778,1481.850586 
	C712.982056,1509.018433 702.757568,1535.496704 692.366089,1562.328125 
z"/>
<path fill="#244566" opacity="1.000000" stroke="none" 
	d="
M1089.008057,1505.989502 
	C1087.301880,1508.667114 1085.735718,1511.011353 1084.157593,1513.347534 
	C1080.160522,1519.264404 1075.448730,1520.717407 1068.777954,1517.972290 
	C1059.596680,1514.193848 1050.607666,1509.986816 1040.177979,1510.951904 
	C1031.905640,1511.717407 1026.252197,1516.502563 1027.424194,1523.934570 
	C1027.908691,1527.007202 1031.105835,1530.763794 1034.036743,1532.122925 
	C1041.752075,1535.700928 1050.032837,1538.042603 1058.023560,1541.048584 
	C1066.953857,1544.407837 1075.891602,1547.694824 1083.131104,1554.392456 
	C1089.431519,1560.221313 1093.281006,1567.266235 1093.978394,1575.673706 
	C1095.048828,1588.580322 1092.467285,1600.580566 1084.073486,1611.021240 
	C1076.548706,1620.380737 1066.455078,1625.560059 1055.230469,1627.925781 
	C1030.942139,1633.044678 1007.577759,1630.423584 986.042236,1617.064453 
	C980.938293,1613.898193 980.339417,1611.609009 983.633972,1606.748901 
	C986.573608,1602.412354 989.302490,1597.870483 992.719421,1593.935913 
	C996.901733,1589.119385 1003.008057,1588.853882 1008.729553,1592.101318 
	C1017.233337,1596.927612 1025.845581,1601.691528 1036.126953,1600.963989 
	C1041.616943,1600.575562 1046.799805,1599.341431 1050.589478,1594.697144 
	C1053.776733,1590.791138 1054.228271,1585.451904 1050.387085,1582.218994 
	C1046.931519,1579.310547 1042.807373,1576.952393 1038.623047,1575.200195 
	C1026.945801,1570.311035 1014.894470,1566.286743 1003.345825,1561.126709 
	C990.185730,1555.246460 983.477051,1534.722168 985.467224,1519.824829 
	C988.433105,1497.624023 1010.124573,1482.816895 1030.349854,1480.788452 
	C1046.001709,1479.218506 1061.029175,1480.303833 1075.285645,1487.042480 
	C1080.894287,1489.693481 1086.048218,1493.346924 1091.237671,1496.801758 
	C1092.033325,1497.331543 1092.423706,1499.427979 1092.077271,1500.501709 
	C1091.483398,1502.342651 1090.159790,1503.948364 1089.008057,1505.989502 
z"/>
<path fill="#234465" opacity="1.000000" stroke="none" 
	d="
M1243.976318,1513.238403 
	C1243.976318,1513.238403 1244.057373,1513.601196 1243.754639,1514.116699 
	C1243.304810,1515.612915 1243.029907,1516.593384 1243.028687,1517.574097 
	C1243.002319,1539.058228 1242.992554,1560.542236 1243.039917,1582.026245 
	C1243.042725,1583.302856 1243.552490,1584.578369 1243.826416,1585.854370 
	C1244.827881,1595.857788 1250.114624,1597.956421 1259.057373,1594.691406 
	C1265.697266,1592.266968 1268.456299,1592.817993 1272.148315,1598.912842 
	C1275.958862,1605.203369 1279.869141,1611.433228 1283.882568,1617.927368 
	C1273.045654,1625.280884 1261.322388,1630.015625 1248.037720,1629.950684 
	C1241.932861,1629.920898 1235.703369,1630.037720 1229.752197,1628.913574 
	C1214.071411,1625.951416 1201.457397,1612.067627 1201.075073,1597.055176 
	C1200.418945,1571.293823 1200.312988,1545.518188 1200.010986,1519.748169 
	C1199.932007,1513.011841 1199.991455,1513.019287 1193.226196,1512.994385 
	C1191.229004,1512.987061 1189.148193,1513.268433 1187.251831,1512.811035 
	C1182.703857,1511.714600 1179.487793,1510.535400 1179.918701,1504.120117 
	C1180.306274,1498.347412 1180.000366,1492.528076 1180.000366,1486.675781 
	C1186.238525,1485.375732 1191.945068,1483.730469 1197.759521,1483.131226 
	C1201.783936,1482.716431 1203.152954,1480.682373 1203.940186,1477.367798 
	C1206.253906,1467.626587 1208.613770,1457.896240 1210.925781,1448.154541 
	C1212.418701,1441.864136 1214.734619,1439.987793 1221.145386,1440.001099 
	C1228.139648,1440.015625 1235.134033,1440.036255 1242.581299,1440.558350 
	C1243.023315,1452.644165 1242.972412,1464.226196 1243.044189,1475.807373 
	C1243.054932,1477.554688 1243.637695,1479.298462 1243.955811,1481.043945 
	C1243.955933,1481.043945 1244.055908,1481.398193 1244.213989,1481.969604 
	C1256.206177,1482.666382 1268.040283,1482.791870 1279.874268,1482.917236 
	C1279.900513,1492.324341 1279.926758,1501.731323 1279.454590,1511.582275 
	C1268.923340,1512.018066 1258.889648,1511.954468 1248.857910,1512.057129 
	C1247.226807,1512.073853 1245.603271,1512.826172 1243.976318,1513.238403 
z"/>
<path fill="#234465" opacity="1.000000" stroke="none" 
	d="
M1156.083008,1352.874268 
	C1143.273193,1352.914917 1130.460815,1352.827515 1117.654907,1353.073853 
	C1113.793823,1353.148071 1112.930542,1351.707275 1112.939331,1348.129150 
	C1113.052979,1301.710083 1113.037476,1255.290771 1113.558594,1208.418457 
	C1124.103760,1207.972168 1134.144897,1207.978882 1144.185913,1207.985596 
	C1148.285034,1208.367920 1150.148560,1211.037109 1150.947754,1214.705200 
	C1151.870239,1218.939453 1152.710327,1223.191650 1153.722900,1228.098267 
	C1159.783569,1219.089844 1166.051270,1211.031128 1175.835938,1207.041992 
	C1184.383667,1203.557129 1193.226440,1203.926270 1201.848755,1206.949829 
	C1203.208496,1207.426880 1204.893799,1209.660034 1204.848511,1211.029053 
	C1204.521362,1220.946045 1203.962036,1230.864868 1203.105347,1240.750854 
	C1202.713379,1245.272217 1197.337158,1247.582397 1191.679932,1246.862793 
	C1186.607788,1246.217773 1181.355103,1245.619995 1176.337769,1246.247314 
	C1169.344116,1247.121826 1163.961670,1251.191284 1160.452759,1257.472900 
	C1159.341553,1259.461914 1158.184692,1261.425293 1156.676270,1264.054932 
	C1156.230347,1294.097656 1156.156738,1323.485962 1156.083008,1352.874268 
z"/>
<path fill="#234465" opacity="1.000000" stroke="none" 
	d="
M927.082764,1627.874268 
	C914.272888,1627.914795 901.460632,1627.827148 888.654724,1628.073608 
	C884.793152,1628.147949 883.930664,1626.706787 883.939453,1623.129028 
	C884.053101,1576.709961 884.037537,1530.290649 884.558594,1483.418213 
	C895.103760,1482.972046 905.144897,1482.978882 915.186035,1482.985718 
	C919.284668,1483.368530 921.148621,1486.036987 921.947754,1489.705322 
	C922.870117,1493.939209 923.710388,1498.191162 924.723206,1503.098999 
	C930.783508,1494.089478 937.049927,1486.027100 946.836304,1482.042480 
	C955.561035,1478.490112 964.556580,1478.968994 973.328186,1482.089966 
	C974.533081,1482.518799 975.919617,1484.706543 975.870117,1486.029419 
	C975.498840,1495.946045 974.961914,1505.864990 974.105042,1515.750977 
	C973.713074,1520.272705 968.337402,1522.582397 962.679810,1521.862793 
	C957.607666,1521.217651 952.354919,1520.620117 947.337524,1521.247314 
	C940.343933,1522.121826 934.961548,1526.191528 931.452515,1532.472900 
	C930.341431,1534.461914 929.184814,1536.425415 927.676392,1539.055054 
	C927.230103,1569.097778 927.156433,1598.485962 927.082764,1627.874268 
z"/>
<path fill="#234465" opacity="1.000000" stroke="none" 
	d="
M1160.082031,1627.874878 
	C1146.008789,1627.901245 1131.935547,1627.927734 1117.418701,1627.455444 
	C1116.984375,1578.941406 1116.993652,1530.926025 1117.003052,1482.910767 
	C1117.003052,1482.910767 1117.005737,1482.979126 1117.444092,1482.983643 
	C1131.942505,1482.983521 1146.002563,1482.979126 1160.062500,1482.974609 
	C1160.062500,1482.974609 1159.994263,1482.979126 1159.996826,1483.419922 
	C1160.027100,1531.865479 1160.054565,1579.870239 1160.082031,1627.874878 
z"/>
<path fill="#234465" opacity="1.000000" stroke="none" 
	d="
M555.081909,1627.874878 
	C541.008789,1627.901367 526.935608,1627.927734 512.418762,1627.455322 
	C511.984467,1578.941406 511.993896,1530.926025 512.003296,1482.910767 
	C512.003296,1482.910767 512.005615,1482.979004 512.444092,1482.983398 
	C526.942566,1482.983521 541.002502,1482.979004 555.062500,1482.974609 
	C555.062500,1482.974609 554.994385,1482.979126 554.996826,1483.419922 
	C555.026794,1531.865479 555.054382,1579.870239 555.081909,1627.874878 
z"/>
<path fill="#244566" opacity="1.000000" stroke="none" 
	d="
M1156.218262,1423.729492 
	C1165.111816,1432.680420 1167.357178,1442.962646 1162.772949,1452.829102 
	C1158.343872,1462.361816 1146.902588,1468.912231 1136.009888,1468.151489 
	C1126.399658,1467.480347 1115.809570,1459.150635 1113.063477,1450.102905 
	C1110.008057,1440.035278 1113.941772,1429.865723 1121.436768,1422.721069 
	C1130.005981,1414.552490 1147.235596,1415.389038 1156.218262,1423.729492 
z"/>
<path fill="#244566" opacity="1.000000" stroke="none" 
	d="
M506.935242,1442.949219 
	C506.766571,1428.938232 519.348267,1417.502197 529.587585,1416.925415 
	C549.627075,1415.796631 559.223938,1429.471558 559.921692,1440.839478 
	C560.889832,1456.612305 549.169739,1467.001465 533.991516,1468.062378 
	C520.191956,1469.026978 507.678497,1457.255859 506.935242,1442.949219 
z"/>
<path fill="#FFB73F" opacity="1.000000" stroke="none" 
	d="
M391.091492,536.417480 
	C391.441254,538.391235 391.962128,540.834534 391.963135,543.278137 
	C392.003876,644.831055 391.997345,746.384033 392.002655,847.936951 
	C392.002777,850.266663 392.071106,852.596375 392.154175,855.382446 
	C391.800537,854.457092 391.050598,853.075562 391.049957,851.693604 
	C391.002197,746.758179 391.013489,641.822693 391.091492,536.417480 
z"/>
<path fill="#59728B" opacity="1.000000" stroke="none" 
	d="
M195.623764,1423.581299 
	C182.032150,1423.953247 168.208069,1424.101318 154.388123,1423.924194 
	C150.299149,1423.871826 148.909317,1425.134277 148.925629,1429.312134 
	C149.088028,1470.945312 149.078064,1512.579102 149.050598,1554.688843 
	C148.618896,1554.332275 147.933426,1553.499390 147.933685,1552.666870 
	C147.947388,1509.848145 148.019318,1467.029419 148.089310,1424.210693 
	C148.089569,1424.052490 148.151794,1423.894409 148.290924,1423.233154 
	C163.916351,1423.233154 179.654617,1423.233154 195.623764,1423.581299 
z"/>
<path fill="#FFCF7F" opacity="1.000000" stroke="none" 
	d="
M1071.822266,600.376953 
	C1072.119263,601.152039 1072.943359,602.387573 1072.944702,603.624023 
	C1073.006470,660.602478 1072.997803,717.580933 1072.981689,774.559448 
	C1072.981445,775.549316 1072.788330,776.539124 1072.422729,777.878662 
	C1072.106812,762.407410 1072.018066,746.586365 1072.006714,730.765381 
	C1071.975586,687.456238 1071.976929,644.147034 1071.822266,600.376953 
z"/>
<path fill="#FFB73F" opacity="1.000000" stroke="none" 
	d="
M515.908447,777.582642 
	C515.558960,776.109802 515.039185,774.167480 515.037659,772.224731 
	C514.994019,716.828369 514.997375,661.432007 515.025208,606.035645 
	C515.026123,604.231750 515.363342,602.428040 515.806091,600.297363 
	C516.038879,659.017944 516.009338,718.065369 515.908447,777.582642 
z"/>
<path fill="#91A1B2" opacity="1.000000" stroke="none" 
	d="
M511.624115,1483.135742 
	C511.993896,1530.926025 511.984467,1578.941406 511.946411,1627.415771 
	C511.611938,1626.705566 511.039703,1625.536377 511.038574,1624.366699 
	C510.993896,1578.186646 510.999786,1532.006714 511.011658,1485.826660 
	C511.011871,1485.004639 511.163818,1484.182617 511.624115,1483.135742 
z"/>
<path fill="#91A1B2" opacity="1.000000" stroke="none" 
	d="
M555.463257,1627.681396 
	C555.054382,1579.870239 555.026794,1531.865479 554.997986,1483.385864 
	C555.329956,1483.755249 555.954773,1484.599487 555.954712,1485.443848 
	C555.950989,1532.791870 555.895264,1580.139893 555.463257,1627.681396 
z"/>
<path fill="#91A1B2" opacity="1.000000" stroke="none" 
	d="
M1116.624023,1483.135742 
	C1116.993652,1530.926025 1116.984375,1578.941406 1116.946411,1627.415771 
	C1116.611938,1626.705566 1116.039795,1625.536377 1116.038696,1624.366699 
	C1115.994019,1578.186768 1115.999634,1532.006714 1116.011475,1485.826782 
	C1116.011719,1485.004761 1116.163818,1484.182617 1116.624023,1483.135742 
z"/>
<path fill="#91A1B2" opacity="1.000000" stroke="none" 
	d="
M1160.463257,1627.681396 
	C1160.054565,1579.870239 1160.027100,1531.865479 1159.998291,1483.385742 
	C1160.330200,1483.755249 1160.954956,1484.599609 1160.954834,1485.444092 
	C1160.951172,1532.791992 1160.895142,1580.140015 1160.463257,1627.681396 
z"/>
<path fill="#91A1B2" opacity="1.000000" stroke="none" 
	d="
M276.624146,1424.135498 
	C277.001923,1463.730469 277.004333,1503.550415 276.987671,1543.370239 
	C276.986847,1545.361084 276.820526,1547.352051 276.425598,1549.623291 
	C276.161560,1508.056030 276.203278,1466.208252 276.624146,1424.135498 
z"/>
<path fill="#FFB73F" opacity="1.000000" stroke="none" 
	d="
M1337.298706,464.082336 
	C1336.966797,423.865173 1337.000366,383.366333 1337.054199,342.395813 
	C1337.382935,342.948151 1337.959473,343.971802 1337.960693,344.996124 
	C1338.005249,383.948090 1337.998779,422.900116 1337.982056,461.852112 
	C1337.981689,462.501678 1337.774780,463.151184 1337.298706,464.082336 
z"/>
<path fill="#91A1B2" opacity="1.000000" stroke="none" 
	d="
M545.070129,1238.552734 
	C545.414307,1239.655640 545.959656,1241.219849 545.961365,1242.784424 
	C546.001221,1279.175049 545.982178,1315.565552 545.945679,1352.415283 
	C545.611633,1351.369629 545.040588,1349.864990 545.038757,1348.359741 
	C544.994995,1311.911133 545.012085,1275.462646 545.070129,1238.552734 
z"/>
<path fill="#FFCF7F" opacity="1.000000" stroke="none" 
	d="
M241.478577,347.230316 
	C241.881210,384.034454 241.923035,421.071350 241.928741,458.577515 
	C241.595337,458.192169 241.038269,457.337646 241.038162,456.483063 
	C241.033646,420.143066 241.078751,383.803101 241.478577,347.230316 
z"/>
<path fill="#91A1B2" opacity="1.000000" stroke="none" 
	d="
M394.464172,1627.680176 
	C394.060699,1594.117310 394.036621,1560.360596 394.026428,1526.603882 
	C394.026215,1525.947388 394.188477,1525.290771 394.582886,1524.353149 
	C394.875610,1558.543457 394.860352,1593.014771 394.464172,1627.680176 
z"/>
<path fill="#91A1B2" opacity="1.000000" stroke="none" 
	d="
M1084.464355,1352.679932 
	C1084.060059,1321.567383 1084.036621,1290.260864 1084.028931,1258.486816 
	C1084.362183,1258.863159 1084.957275,1259.707031 1084.957153,1260.551025 
	C1084.954102,1291.196045 1084.895874,1321.841064 1084.464355,1352.679932 
z"/>
<path fill="#91A1B2" opacity="1.000000" stroke="none" 
	d="
M927.463806,1627.680542 
	C927.156433,1598.485962 927.230103,1569.097778 927.588013,1539.411621 
	C927.863098,1568.571411 927.854004,1598.029053 927.463806,1627.680542 
z"/>
<path fill="#91A1B2" opacity="1.000000" stroke="none" 
	d="
M1156.463989,1352.680542 
	C1156.156738,1323.485962 1156.230347,1294.097656 1156.587891,1264.411255 
	C1156.862915,1293.571045 1156.853882,1323.028931 1156.463989,1352.680542 
z"/>
<path fill="#59728B" opacity="1.000000" stroke="none" 
	d="
M684.942200,1311.497070 
	C684.606445,1310.706787 684.048096,1309.450684 684.045288,1308.193359 
	C683.996338,1286.149536 684.010620,1264.105469 684.037598,1242.061523 
	C684.038574,1241.251343 684.307861,1240.441284 684.703979,1239.294312 
	C684.963318,1262.981934 684.970764,1287.006348 684.942200,1311.497070 
z"/>
<path fill="#59728B" opacity="1.000000" stroke="none" 
	d="
M1243.885986,1585.398926 
	C1243.552490,1584.578369 1243.042725,1583.302856 1243.039917,1582.026245 
	C1242.992554,1560.542236 1243.002319,1539.058228 1243.028687,1517.574097 
	C1243.029907,1516.593384 1243.304810,1515.612915 1243.703979,1514.295654 
	C1243.952515,1537.620483 1243.948975,1561.282104 1243.885986,1585.398926 
z"/>
<path fill="#91A1B2" opacity="1.000000" stroke="none" 
	d="
M642.447327,1207.070068 
	C641.841492,1207.413208 640.775208,1207.954712 639.707153,1207.958008 
	C623.404480,1208.008545 607.101562,1207.995117 590.798767,1207.966431 
	C589.989502,1207.965088 589.180786,1207.689209 588.171875,1207.148926 
	C605.976624,1206.843750 623.981323,1206.931030 642.447327,1207.070068 
z"/>
<path fill="#91A1B2" opacity="1.000000" stroke="none" 
	d="
M589.505310,1237.989990 
	C589.581055,1237.676514 590.122314,1237.101685 590.661865,1237.103271 
	C607.210022,1237.152466 623.757996,1237.258301 640.615173,1237.628418 
	C623.939575,1237.933472 606.954773,1237.965454 589.505310,1237.989990 
z"/>
<path fill="#59728B" opacity="1.000000" stroke="none" 
	d="
M323.623779,1423.581299 
	C308.530640,1423.948608 293.206635,1423.967896 277.410065,1423.980713 
	C277.640686,1423.656372 278.344208,1423.060303 279.047028,1423.061035 
	C293.829071,1423.078003 308.610992,1423.162109 323.623779,1423.581299 
z"/>
<path fill="#59728B" opacity="1.000000" stroke="none" 
	d="
M554.806885,1482.624756 
	C541.002502,1482.979004 526.942566,1482.983521 512.410034,1482.981201 
	C512.634094,1482.656860 513.331299,1482.061035 514.027222,1482.062500 
	C527.535339,1482.091553 541.043335,1482.190308 554.806885,1482.624756 
z"/>
<path fill="#59728B" opacity="1.000000" stroke="none" 
	d="
M1159.806885,1482.624756 
	C1146.002563,1482.979126 1131.942505,1482.983521 1117.410034,1482.981445 
	C1117.634033,1482.656982 1118.331299,1482.061157 1119.027100,1482.062622 
	C1132.535278,1482.091675 1146.043213,1482.190308 1159.806885,1482.624756 
z"/>
<path fill="#59728B" opacity="1.000000" stroke="none" 
	d="
M1243.972778,1480.569702 
	C1243.637695,1479.298462 1243.054932,1477.554688 1243.044189,1475.807373 
	C1242.972412,1464.226196 1243.023315,1452.644165 1243.052490,1440.604004 
	C1243.380493,1441.674316 1243.949463,1443.201416 1243.958740,1444.731934 
	C1244.030273,1456.519409 1243.993164,1468.307495 1243.972778,1480.569702 
z"/>
<path fill="#59728B" opacity="1.000000" stroke="none" 
	d="
M684.972717,1205.570679 
	C684.637939,1204.299683 684.055664,1202.555664 684.044800,1200.808350 
	C683.972900,1189.226807 684.023438,1177.644409 684.052673,1165.603882 
	C684.380798,1166.674194 684.949524,1168.201538 684.958740,1169.732178 
	C685.030090,1181.519775 684.993042,1193.308105 684.972717,1205.570679 
z"/>
<path fill="#91A1B2" opacity="1.000000" stroke="none" 
	d="
M1244.437378,1513.136963 
	C1245.603271,1512.826172 1247.226807,1512.073853 1248.857910,1512.057129 
	C1258.889648,1511.954468 1268.923340,1512.018066 1279.415527,1512.054688 
	C1278.369263,1512.388916 1276.866089,1512.946045 1275.358154,1512.959351 
	C1265.205566,1513.049194 1255.051758,1513.023682 1244.437378,1513.136963 
z"/>
<path fill="#91A1B2" opacity="1.000000" stroke="none" 
	d="
M1279.680664,1482.536133 
	C1268.040283,1482.791870 1256.206177,1482.666382 1244.171631,1482.148682 
	C1255.809692,1481.889282 1267.648315,1482.022217 1279.680664,1482.536133 
z"/>
<path fill="#91A1B2" opacity="1.000000" stroke="none" 
	d="
M685.437988,1238.136963 
	C686.612732,1237.826050 688.244568,1237.075806 689.884827,1237.056763 
	C699.635254,1236.944092 709.387695,1237.000732 719.614380,1236.998779 
	C718.591858,1237.331543 717.097046,1237.940674 715.596313,1237.955444 
	C705.697876,1238.053589 695.798218,1238.023682 685.437988,1238.136963 
z"/>
<path fill="#91A1B2" opacity="1.000000" stroke="none" 
	d="
M719.864380,1207.623779 
	C708.516907,1207.848999 696.944336,1207.695190 685.171875,1207.148926 
	C696.527710,1206.919189 708.083557,1207.081909 719.864380,1207.623779 
z"/>
<path fill="#59728B" opacity="1.000000" stroke="none" 
	d="
M914.969421,1482.591553 
	C905.144897,1482.978882 895.103760,1482.972046 884.604126,1482.947021 
	C886.313416,1482.619385 888.479736,1482.057739 890.649170,1482.045044 
	C898.683105,1481.997803 906.718201,1482.131592 914.969421,1482.591553 
z"/>
<path fill="#59728B" opacity="1.000000" stroke="none" 
	d="
M1143.969238,1207.591553 
	C1134.144897,1207.978882 1124.103760,1207.972168 1113.604248,1207.947266 
	C1115.313477,1207.619385 1117.479736,1207.057617 1119.649048,1207.044922 
	C1127.682983,1206.997803 1135.718018,1207.131470 1143.969238,1207.591553 
z"/>
<path fill="#59728B" opacity="1.000000" stroke="none" 
	d="
M720.375244,1236.806885 
	C720.021179,1227.669189 720.017090,1218.276001 720.019165,1208.410156 
	C720.350281,1210.433472 720.933411,1212.927612 720.950806,1215.425781 
	C721.000061,1222.466797 720.816833,1229.509277 720.375244,1236.806885 
z"/>
<path fill="#FFB73F" opacity="1.000000" stroke="none" 
	d="
M516.284912,600.043457 
	C516.273376,599.922241 516.541443,599.760132 516.957397,599.717773 
	C516.924988,599.892578 516.744812,599.947632 516.284912,600.043457 
z"/>
<path fill="#91A1B2" opacity="1.000000" stroke="none" 
	d="
M1254.062866,1261.956543 
	C1271.308716,1261.956543 1288.554565,1261.956543 1305.800415,1261.956543 
	C1305.799194,1262.186768 1305.798096,1262.417114 1305.796875,1262.647339 
	C1288.693115,1262.647339 1271.589233,1262.647339 1254.290161,1262.279907 
	C1254.094849,1261.912476 1254.062866,1261.956543 1254.062866,1261.956543 
z"/>
<path fill="#91A1B2" opacity="1.000000" stroke="none" 
	d="
M1254.113037,1261.892212 
	C1253.820557,1261.725830 1253.505859,1261.586304 1253.207642,1261.417969 
	C1253.188477,1261.406982 1253.295654,1261.172485 1253.344116,1261.041992 
	C1253.513672,1261.228882 1253.683350,1261.415894 1253.957886,1261.779663 
	C1254.062866,1261.956543 1254.094849,1261.912476 1254.113037,1261.892212 
z"/>
<path fill="#000000" opacity="1.000000" stroke="none" 
	d="
M421.866394,1246.796143 
	C424.990326,1244.267334 427.588287,1241.187622 430.874512,1239.978027 
	C440.758453,1236.340210 451.034241,1236.439575 459.612000,1242.793213 
	C463.777161,1245.878418 467.335236,1251.454468 468.524658,1256.523193 
	C470.715088,1265.857788 472.042816,1275.687378 471.720459,1285.242798 
	C471.343292,1296.423340 469.899628,1308.005005 460.815094,1316.345215 
	C454.658203,1321.997803 447.153961,1323.673462 438.969116,1322.181152 
	C436.428741,1321.718140 433.878571,1321.197388 431.417206,1320.431885 
	C422.192444,1317.562988 418.527802,1310.261719 416.083893,1301.652222 
	C411.972351,1287.167969 412.376068,1272.752197 416.245941,1258.413940 
	C417.317078,1254.445190 419.812897,1250.860840 421.866394,1246.796143 
z"/>
<path fill="#000000" opacity="1.000000" stroke="none" 
	d="
M770.060120,1536.903564 
	C772.856567,1518.525879 781.611572,1510.618408 797.568848,1510.359253 
	C812.199646,1510.121460 821.764954,1518.213257 822.501343,1536.453247 
	C804.753296,1536.944458 787.406677,1536.924072 770.060120,1536.903564 
z"/>
<path fill="#91A1B2" opacity="1.000000" stroke="none" 
	d="
M770.041992,1537.210693 
	C787.406677,1536.924072 804.753296,1536.944458 822.561157,1536.864746 
	C821.878357,1537.173462 820.735901,1537.933472 819.590027,1537.938721 
	C803.525269,1538.011841 787.460022,1537.985962 771.394958,1537.958130 
	C770.937622,1537.957397 770.480896,1537.670898 770.041992,1537.210693 
z"/>
<path fill="#000000" opacity="1.000000" stroke="none" 
	d="
M1007.453918,1300.255615 
	C1017.561829,1298.056274 1027.319214,1295.966309 1037.108032,1294.035767 
	C1040.598755,1293.347290 1042.493286,1294.709106 1042.040283,1298.620605 
	C1041.812378,1300.588989 1042.001953,1302.605835 1042.001953,1304.600708 
	C1042.002319,1314.466187 1037.634644,1321.078247 1027.916870,1323.651611 
	C1021.815796,1325.267334 1015.284851,1325.678223 1008.933228,1325.779541 
	C1004.892761,1325.843872 1001.327698,1323.610474 999.961243,1319.271484 
	C998.481384,1314.572876 997.987915,1309.787964 1001.195618,1305.630249 
	C1002.770508,1303.588745 1005.118042,1302.143311 1007.453918,1300.255615 
z"/>
</svg>